<svg xmlns="http://www.w3.org/2000/svg" width="998" height="580" viewBox="0 0 998 580" shape-rendering="crispEdges" font-family="Consolas,'Malgun Gothic','Noto Sans KR',monospace"><style>text{fill:#222;shape-rendering:auto}.cap{font-size:13px;font-weight:bold}.leg{font-size:12px}.sub{font-size:12px;fill:#666}.tick{font-size:8px;fill:#999;text-anchor:middle}.arrow{font-size:10px;fill:#fff;text-anchor:middle}.fine{stroke:#000;stroke-opacity:.07;stroke-width:1;fill:none}.grid{stroke:#000;stroke-opacity:.30;stroke-width:1}</style><rect width="100%" height="100%" fill="#fff"/><text x="12" y="22" class="cap" font-size="16">grave / 뼈대   28×56×21</text><text x="12" y="40" class="sub">무작위 조각을 뺀, 반드시 이렇게 놓이는 부분만 그린 것이다.</text><text x="12" y="60" class="cap">단면 z = 10</text><rect x="12" y="78" width="168" height="336" fill="#fbfbfb" stroke="#bbb"/><path transform="translate(12,78) scale(6)" fill="#8f8f8f" d="M0 5h1v1h-1zM2 5h2v1h-2zM5 5h1v1h-1zM7 5h1v1h-1zM9 5h2v1h-2zM12 5h1v1h-1zM14 5h1v1h-1zM16 5h2v1h-2zM19 5h1v1h-1zM1 15h8v1h-8zM12 15h8v1h-8z"/><path transform="translate(12,78) scale(6)" fill="#828282" d="M0 6h1v1h-1zM20 6h1v1h-1zM0 7h1v1h-1zM20 7h1v1h-1zM0 8h1v1h-1zM20 8h1v1h-1z"/><path transform="translate(12,78) scale(6)" fill="#ff2fa0" d="M0 15h1v1h-1zM20 15h1v1h-1zM7 55h1v1h-1z"/><path transform="translate(12,78) scale(6)" fill="#7d5d41" d="M0 16h9v1h-9zM12 16h9v1h-9zM0 17h9v1h-9zM12 17h9v1h-9zM0 18h9v1h-9zM12 18h9v1h-9zM0 19h9v1h-9zM12 19h9v1h-9zM0 20h9v1h-9zM12 20h9v1h-9z"/><path transform="translate(12,78) scale(6)" fill="#7a7a7a" d="M7 21h2v1h-2zM12 21h2v1h-2zM7 22h2v1h-2zM12 22h2v1h-2zM7 23h2v1h-2zM12 23h2v1h-2zM7 25h2v1h-2zM12 25h2v1h-2zM7 26h2v1h-2zM12 26h2v1h-2zM7 27h2v1h-2zM12 27h2v1h-2zM7 29h2v1h-2zM12 29h2v1h-2zM7 30h2v1h-2zM12 30h2v1h-2zM7 31h2v1h-2zM12 31h2v1h-2zM7 33h2v1h-2zM12 33h2v1h-2zM7 34h2v1h-2zM12 34h2v1h-2zM7 35h2v1h-2zM12 35h2v1h-2zM7 37h2v1h-2zM12 37h2v1h-2zM7 38h2v1h-2zM12 38h2v1h-2zM7 39h2v1h-2zM12 39h2v1h-2zM7 41h2v1h-2zM12 41h2v1h-2zM7 42h2v1h-2zM12 42h2v1h-2zM7 43h2v1h-2zM12 43h2v1h-2zM7 45h2v1h-2zM12 45h2v1h-2zM7 46h2v1h-2zM12 46h2v1h-2zM7 47h2v1h-2zM12 47h2v1h-2zM7 49h2v1h-2zM12 49h2v1h-2zM7 50h1v1h-1zM13 50h1v1h-1zM13 52h1v1h-1zM13 53h1v1h-1zM13 54h1v1h-1z"/><path transform="translate(12,78) scale(6)" fill="#848484" d="M7 24h2v1h-2zM12 24h2v1h-2zM7 28h2v1h-2zM12 28h2v1h-2zM7 32h2v1h-2zM12 32h2v1h-2zM7 36h2v1h-2zM12 36h2v1h-2zM7 40h2v1h-2zM12 40h2v1h-2zM7 44h2v1h-2zM12 44h2v1h-2zM7 48h2v1h-2zM12 48h2v1h-2zM13 51h1v1h-1z"/><path transform="translate(12,78) scale(6)" fill="#7c8a72" d="M8 55h6v1h-6z"/><line x1="12" y1="78" x2="12" y2="414" class="grid"/><line x1="54" y1="78" x2="54" y2="414" class="grid"/><line x1="96" y1="78" x2="96" y2="414" class="grid"/><line x1="138" y1="78" x2="138" y2="414" class="grid"/><line x1="180" y1="78" x2="180" y2="414" class="grid"/><line x1="12" y1="78" x2="180" y2="78" class="grid"/><line x1="12" y1="120" x2="180" y2="120" class="grid"/><line x1="12" y1="162" x2="180" y2="162" class="grid"/><line x1="12" y1="204" x2="180" y2="204" class="grid"/><line x1="12" y1="246" x2="180" y2="246" class="grid"/><line x1="12" y1="288" x2="180" y2="288" class="grid"/><line x1="12" y1="330" x2="180" y2="330" class="grid"/><line x1="12" y1="372" x2="180" y2="372" class="grid"/><line x1="12" y1="414" x2="180" y2="414" class="grid"/><text x="222" y="60" class="cap">단면 x = 13</text><rect x="222" y="78" width="126" height="336" fill="#fbfbfb" stroke="#bbb"/><path transform="translate(222,78) scale(6)" fill="#8f8f8f" d="M1 5h2v1h-2zM4 5h2v1h-2zM8 5h2v1h-2zM11 5h2v1h-2zM15 5h2v1h-2zM18 5h2v1h-2zM0 15h21v1h-21z"/><path transform="translate(222,78) scale(6)" fill="#828282" d="M0 6h1v1h-1zM20 6h1v1h-1zM0 7h1v1h-1zM20 7h1v1h-1zM0 8h1v1h-1zM20 8h1v1h-1zM0 9h1v1h-1zM20 9h1v1h-1zM0 10h1v1h-1zM20 10h1v1h-1zM0 11h1v1h-1zM20 11h1v1h-1zM0 12h1v1h-1zM20 12h1v1h-1zM0 13h1v1h-1zM20 13h1v1h-1zM0 14h1v1h-1zM20 14h1v1h-1z"/><path transform="translate(222,78) scale(6)" fill="#25403f" d="M13 14h1v1h-1z"/><path transform="translate(222,78) scale(6)" fill="#7d5d41" d="M0 16h21v1h-21zM0 17h21v1h-21zM0 18h21v1h-21zM0 19h21v1h-21zM0 20h21v1h-21z"/><path transform="translate(222,78) scale(6)" fill="#7a7a7a" d="M7 21h7v1h-7zM7 22h7v1h-7zM7 23h7v1h-7zM7 25h7v1h-7zM7 26h7v1h-7zM7 27h7v1h-7zM7 29h7v1h-7zM7 30h7v1h-7zM7 31h7v1h-7zM7 33h7v1h-7zM7 34h7v1h-7zM7 35h7v1h-7zM7 37h7v1h-7zM7 38h7v1h-7zM7 39h7v1h-7zM7 41h7v1h-7zM7 42h7v1h-7zM7 43h7v1h-7zM7 45h7v1h-7zM7 46h7v1h-7zM7 47h7v1h-7zM7 49h14v1h-14zM7 50h14v1h-14zM7 52h9v1h-9zM19 52h2v1h-2zM7 53h9v1h-9zM19 53h2v1h-2zM7 54h9v1h-9zM19 54h2v1h-2z"/><path transform="translate(222,78) scale(6)" fill="#848484" d="M7 24h7v1h-7zM7 28h7v1h-7zM7 32h7v1h-7zM7 36h7v1h-7zM7 40h7v1h-7zM7 44h7v1h-7zM7 48h7v1h-7zM7 51h9v1h-9zM19 51h2v1h-2z"/><path transform="translate(222,78) scale(6)" fill="#7c8a72" d="M7 55h10v1h-10zM18 55h3v1h-3z"/><path transform="translate(222,78) scale(6)" fill="#ff2fa0" d="M17 55h1v1h-1z"/><line x1="222" y1="78" x2="222" y2="414" class="grid"/><line x1="264" y1="78" x2="264" y2="414" class="grid"/><line x1="306" y1="78" x2="306" y2="414" class="grid"/><line x1="348" y1="78" x2="348" y2="414" class="grid"/><line x1="222" y1="78" x2="348" y2="78" class="grid"/><line x1="222" y1="120" x2="348" y2="120" class="grid"/><line x1="222" y1="162" x2="348" y2="162" class="grid"/><line x1="222" y1="204" x2="348" y2="204" class="grid"/><line x1="222" y1="246" x2="348" y2="246" class="grid"/><line x1="222" y1="288" x2="348" y2="288" class="grid"/><line x1="222" y1="330" x2="348" y2="330" class="grid"/><line x1="222" y1="372" x2="348" y2="372" class="grid"/><line x1="222" y1="414" x2="348" y2="414" class="grid"/><text x="390" y="60" class="cap">묘역  y = 6</text><rect x="390" y="78" width="168" height="126" fill="#fbfbfb" stroke="#bbb"/><path transform="translate(390,78) scale(6)" fill="#7c8a72" d="M0 0h1v1h-1zM20 0h1v1h-1zM0 20h1v1h-1zM20 20h1v1h-1z"/><path transform="translate(390,78) scale(6)" fill="#828282" d="M1 0h8v1h-8zM12 0h8v1h-8zM0 1h1v1h-1zM20 1h1v1h-1zM0 2h1v1h-1zM20 2h1v1h-1zM0 3h1v1h-1zM20 3h1v1h-1zM0 4h1v1h-1zM20 4h1v1h-1zM0 5h1v1h-1zM20 5h1v1h-1zM0 6h1v1h-1zM20 6h1v1h-1zM0 7h1v1h-1zM20 7h1v1h-1zM0 8h1v1h-1zM20 8h1v1h-1zM0 12h1v1h-1zM20 12h1v1h-1zM0 13h1v1h-1zM20 13h1v1h-1zM0 14h1v1h-1zM20 14h1v1h-1zM0 15h1v1h-1zM20 15h1v1h-1zM0 16h1v1h-1zM20 16h1v1h-1zM0 17h1v1h-1zM20 17h1v1h-1zM0 18h1v1h-1zM20 18h1v1h-1zM0 19h1v1h-1zM20 19h1v1h-1zM1 20h8v1h-8zM12 20h8v1h-8z"/><path transform="translate(390,78) scale(6)" fill="#b9852f" d="M2 2h1v1h-1zM18 18h1v1h-1z"/><path transform="translate(390,78) scale(6)" fill="#8f8f8f" d="M8 2h5v1h-5zM8 3h5v1h-5z"/><path transform="translate(390,78) scale(6)" fill="#5fd8f0" d="M4 4h1v1h-1zM16 4h1v1h-1zM4 16h1v1h-1zM16 16h1v1h-1z"/><path transform="translate(390,78) scale(6)" fill="#d8dde2" d="M1 5h1v1h-1zM19 15h1v1h-1z"/><path transform="translate(390,78) scale(6)" fill="#25403f" d="M13 13h1v1h-1z"/><path transform="translate(390,78) scale(6)" fill="#ab7f4c" d="M2 18h1v1h-1z"/><line x1="390" y1="78" x2="390" y2="204" class="grid"/><line x1="432" y1="78" x2="432" y2="204" class="grid"/><line x1="474" y1="78" x2="474" y2="204" class="grid"/><line x1="516" y1="78" x2="516" y2="204" class="grid"/><line x1="558" y1="78" x2="558" y2="204" class="grid"/><line x1="390" y1="78" x2="558" y2="78" class="grid"/><line x1="390" y1="120" x2="558" y2="120" class="grid"/><line x1="390" y1="162" x2="558" y2="162" class="grid"/><line x1="390" y1="204" x2="558" y2="204" class="grid"/><text x="600" y="60" class="cap">예배당 안  y = 8</text><rect x="600" y="78" width="168" height="126" fill="#fbfbfb" stroke="#bbb"/><path transform="translate(600,78) scale(6)" fill="#7c8a72" d="M0 0h1v1h-1zM20 0h1v1h-1zM0 20h1v1h-1zM20 20h1v1h-1z"/><path transform="translate(600,78) scale(6)" fill="#828282" d="M1 0h8v1h-8zM12 0h8v1h-8zM0 1h1v1h-1zM20 1h1v1h-1zM0 2h1v1h-1zM20 2h1v1h-1zM0 3h1v1h-1zM20 3h1v1h-1zM0 4h1v1h-1zM20 4h1v1h-1zM0 5h1v1h-1zM20 5h1v1h-1zM0 6h1v1h-1zM20 6h1v1h-1zM0 7h1v1h-1zM20 7h1v1h-1zM0 8h1v1h-1zM20 8h1v1h-1zM0 12h1v1h-1zM20 12h1v1h-1zM0 13h1v1h-1zM20 13h1v1h-1zM0 14h1v1h-1zM20 14h1v1h-1zM0 15h1v1h-1zM20 15h1v1h-1zM0 16h1v1h-1zM20 16h1v1h-1zM0 17h1v1h-1zM20 17h1v1h-1zM0 18h1v1h-1zM20 18h1v1h-1zM0 19h1v1h-1zM20 19h1v1h-1zM1 20h8v1h-8zM12 20h8v1h-8z"/><path transform="translate(600,78) scale(6)" fill="#2a2a2a" d="M10 2h1v1h-1z"/><line x1="600" y1="78" x2="600" y2="204" class="grid"/><line x1="642" y1="78" x2="642" y2="204" class="grid"/><line x1="684" y1="78" x2="684" y2="204" class="grid"/><line x1="726" y1="78" x2="726" y2="204" class="grid"/><line x1="768" y1="78" x2="768" y2="204" class="grid"/><line x1="600" y1="78" x2="768" y2="78" class="grid"/><line x1="600" y1="120" x2="768" y2="120" class="grid"/><line x1="600" y1="162" x2="768" y2="162" class="grid"/><line x1="600" y1="204" x2="768" y2="204" class="grid"/><text x="810" y="60" class="cap">납골당  y = -24</text><rect x="810" y="78" width="168" height="126" fill="#fbfbfb" stroke="#bbb"/><path transform="translate(810,78) scale(6)" fill="#848484" d="M7 7h7v1h-7zM7 8h7v1h-7zM7 9h2v1h-2zM12 9h2v1h-2zM7 10h2v1h-2zM12 10h2v1h-2zM7 11h2v1h-2zM12 11h2v1h-2zM7 12h7v1h-7zM7 13h7v1h-7z"/><path transform="translate(810,78) scale(6)" fill="#b8863f" d="M9 11h1v1h-1z"/><line x1="810" y1="78" x2="810" y2="204" class="grid"/><line x1="852" y1="78" x2="852" y2="204" class="grid"/><line x1="894" y1="78" x2="894" y2="204" class="grid"/><line x1="936" y1="78" x2="936" y2="204" class="grid"/><line x1="978" y1="78" x2="978" y2="204" class="grid"/><line x1="810" y1="78" x2="978" y2="78" class="grid"/><line x1="810" y1="120" x2="978" y2="120" class="grid"/><line x1="810" y1="162" x2="978" y2="162" class="grid"/><line x1="810" y1="204" x2="978" y2="204" class="grid"/><text x="12" y="470" class="cap">범례</text><rect x="12" y="486" width="12" height="12" fill="#8f8f8f" stroke="#999"/><text x="30" y="497" class="leg">#  돌벽돌  stone_bricks</text><rect x="302" y="486" width="12" height="12" fill="#7c8a72" stroke="#999"/><text x="320" y="497" class="leg">m  이끼 낀 돌벽돌  mossy_stone_bricks</text><rect x="592" y="486" width="12" height="12" fill="#ab7f4c" stroke="#999"/><text x="610" y="497" class="leg">L  독서대  lectern</text><rect x="882" y="486" width="12" height="12" fill="#b9852f" stroke="#999"/><text x="900" y="497" class="leg">c  상자  chest</text><rect x="12" y="506" width="12" height="12" fill="#25403f" stroke="#999"/><text x="30" y="517" class="leg">S  몬스터 스포너  spawner</text><rect x="302" y="506" width="12" height="12" fill="#b8863f" stroke="#999"/><text x="320" y="517" class="leg">H  사다리  ladder</text><rect x="592" y="506" width="12" height="12" fill="#5fd8f0" stroke="#999"/><text x="610" y="517" class="leg">*  영혼 랜턴  soul_lantern</text><rect x="882" y="506" width="12" height="12" fill="#2a2a2a" stroke="#999"/><text x="900" y="517" class="leg">c  검은 양초  black_candle</text><rect x="12" y="526" width="12" height="12" fill="#848484" stroke="#999"/><text x="30" y="537" class="leg">.  안산암  andesite</text><rect x="302" y="526" width="12" height="12" fill="#7d5d41" stroke="#999"/><text x="320" y="537" class="leg">d  거친 흙  coarse_dirt</text><rect x="592" y="526" width="12" height="12" fill="#7a7a7a" stroke="#999"/><text x="610" y="537" class="leg">.  돌  stone</text><rect x="882" y="526" width="12" height="12" fill="#828282" stroke="#999"/><text x="900" y="537" class="leg">,  조약돌  cobblestone</text><rect x="12" y="546" width="12" height="12" fill="#d8dde2" stroke="#999"/><text x="30" y="557" class="leg">*  거미줄  cobweb</text><rect x="302" y="546" width="12" height="12" fill="#ff2fa0" stroke="#999"/><text x="320" y="557" class="leg">J  직소  jigsaw</text></svg>