<svg xmlns="http://www.w3.org/2000/svg" width="1222" height="620" viewBox="0 0 1222 620" shape-rendering="crispEdges" font-family="Consolas,'Malgun Gothic','Noto Sans KR',monospace"><style>text{fill:#222;shape-rendering:auto}.cap{font-size:13px;font-weight:bold}.leg{font-size:12px}.sub{font-size:12px;fill:#666}.tick{font-size:8px;fill:#999;text-anchor:middle}.arrow{font-size:10px;fill:#fff;text-anchor:middle}.fine{stroke:#000;stroke-opacity:.07;stroke-width:1;fill:none}.grid{stroke:#000;stroke-opacity:.30;stroke-width:1}</style><rect width="100%" height="100%" fill="#fff"/><text x="12" y="22" class="cap" font-size="16">camp / tower_a   14×28×14</text><text x="12" y="40" class="sub">북쪽이 위, 오른쪽이 동쪽. 옅은 선은 7칸 격자. 분홍 점은 직소이고 화살표는 그 직소가 보는 방향이다.</text><text x="12" y="60" class="cap">y = 0–6</text><rect x="12" y="78" width="112" height="112" fill="#fbfbfb" stroke="#bbb"/><path transform="translate(12,78) scale(8)" fill="#7d5d41" d="M0 0h14v1h-14zM0 1h14v1h-14zM0 2h7v1h-7zM0 3h7v1h-7zM0 4h7v1h-7zM0 5h7v1h-7zM0 6h7v1h-7zM0 7h14v1h-14zM0 8h14v1h-14zM0 9h14v1h-14zM0 10h14v1h-14zM0 11h14v1h-14zM0 12h14v1h-14zM0 13h14v1h-14z"/><path class="fine" d="M20 78v112M28 78v112M36 78v112M44 78v112M52 78v112M60 78v112M68 78v112M76 78v112M84 78v112M92 78v112M100 78v112M108 78v112M116 78v112M12 86h112M12 94h112M12 102h112M12 110h112M12 118h112M12 126h112M12 134h112M12 142h112M12 150h112M12 158h112M12 166h112M12 174h112M12 182h112"/><line x1="12" y1="78" x2="12" y2="190" class="grid"/><line x1="68" y1="78" x2="68" y2="190" class="grid"/><line x1="124" y1="78" x2="124" y2="190" class="grid"/><line x1="12" y1="78" x2="124" y2="78" class="grid"/><line x1="12" y1="134" x2="124" y2="134" class="grid"/><line x1="12" y1="190" x2="124" y2="190" class="grid"/><text x="166" y="60" class="cap">y = 7</text><rect x="166" y="78" width="112" height="112" fill="#fbfbfb" stroke="#bbb"/><path transform="translate(166,78) scale(8)" fill="#7d5d41" d="M0 0h7v1h-7zM0 1h7v1h-7zM0 2h7v1h-7zM0 3h7v1h-7zM0 4h7v1h-7zM0 5h7v1h-7zM0 6h7v1h-7zM2 7h5v1h-5zM8 7h6v1h-6zM2 8h3v1h-3zM6 8h6v1h-6zM13 8h1v1h-1zM2 9h1v1h-1zM4 9h6v1h-6zM11 9h3v1h-3zM2 10h6v1h-6zM9 10h5v1h-5zM2 11h4v1h-4zM7 11h6v1h-6zM2 12h2v1h-2zM5 12h6v1h-6zM12 12h2v1h-2zM3 13h6v1h-6zM10 13h4v1h-4z"/><path transform="translate(166,78) scale(8)" fill="#96613a" d="M7 0h7v1h-7zM7 1h7v1h-7zM0 7h2v1h-2zM0 8h2v1h-2zM0 9h2v1h-2zM0 10h2v1h-2zM0 11h2v1h-2zM0 12h2v1h-2zM0 13h2v1h-2z"/><path transform="translate(166,78) scale(8)" fill="#8d8888" d="M7 7h1v1h-1zM5 8h1v1h-1zM12 8h1v1h-1zM3 9h1v1h-1zM10 9h1v1h-1zM8 10h1v1h-1zM6 11h1v1h-1zM4 12h1v1h-1zM11 12h1v1h-1zM2 13h1v1h-1zM9 13h1v1h-1z"/><path transform="translate(166,78) scale(8)" fill="#ff2fa0" d="M13 11h1v1h-1z"/><path class="fine" d="M174 78v112M182 78v112M190 78v112M198 78v112M206 78v112M214 78v112M222 78v112M230 78v112M238 78v112M246 78v112M254 78v112M262 78v112M270 78v112M166 86h112M166 94h112M166 102h112M166 110h112M166 118h112M166 126h112M166 134h112M166 142h112M166 150h112M166 158h112M166 166h112M166 174h112M166 182h112"/><line x1="166" y1="78" x2="166" y2="190" class="grid"/><line x1="222" y1="78" x2="222" y2="190" class="grid"/><line x1="278" y1="78" x2="278" y2="190" class="grid"/><line x1="166" y1="78" x2="278" y2="78" class="grid"/><line x1="166" y1="134" x2="278" y2="134" class="grid"/><line x1="166" y1="190" x2="278" y2="190" class="grid"/><circle cx="274.0" cy="170.0" r="4.0" fill="#ff2fa0" stroke="#fff"/><text x="274.0" y="172.6" class="arrow" font-size="7.2">▶</text><text x="320" y="60" class="cap">y = 8</text><rect x="320" y="78" width="112" height="112" fill="#fbfbfb" stroke="#bbb"/><path transform="translate(320,78) scale(8)" fill="#96613a" d="M7 0h7v1h-7zM1 1h1v1h-1zM5 1h1v1h-1zM7 1h7v1h-7zM1 5h1v1h-1zM5 5h1v1h-1zM0 7h2v1h-2zM0 8h2v1h-2zM0 9h2v1h-2zM0 10h2v1h-2zM0 11h2v1h-2zM0 12h2v1h-2zM0 13h2v1h-2z"/><path transform="translate(320,78) scale(8)" fill="#b8863f" d="M2 1h1v1h-1z"/><path transform="translate(320,78) scale(8)" fill="#a05a30" d="M7 2h1v1h-1zM11 2h1v1h-1z"/><path transform="translate(320,78) scale(8)" fill="#ffc94d" d="M4 4h1v1h-1z"/><path class="fine" d="M328 78v112M336 78v112M344 78v112M352 78v112M360 78v112M368 78v112M376 78v112M384 78v112M392 78v112M400 78v112M408 78v112M416 78v112M424 78v112M320 86h112M320 94h112M320 102h112M320 110h112M320 118h112M320 126h112M320 134h112M320 142h112M320 150h112M320 158h112M320 166h112M320 174h112M320 182h112"/><line x1="320" y1="78" x2="320" y2="190" class="grid"/><line x1="376" y1="78" x2="376" y2="190" class="grid"/><line x1="432" y1="78" x2="432" y2="190" class="grid"/><line x1="320" y1="78" x2="432" y2="78" class="grid"/><line x1="320" y1="134" x2="432" y2="134" class="grid"/><line x1="320" y1="190" x2="432" y2="190" class="grid"/><text x="474" y="60" class="cap">y = 9–11</text><rect x="474" y="78" width="112" height="112" fill="#fbfbfb" stroke="#bbb"/><path transform="translate(474,78) scale(8)" fill="#96613a" d="M7 0h7v1h-7zM1 1h1v1h-1zM5 1h1v1h-1zM7 1h7v1h-7zM1 5h1v1h-1zM5 5h1v1h-1zM0 7h2v1h-2zM0 8h2v1h-2zM0 9h2v1h-2zM0 10h2v1h-2zM0 11h2v1h-2zM0 12h2v1h-2zM0 13h2v1h-2z"/><path transform="translate(474,78) scale(8)" fill="#b8863f" d="M2 1h1v1h-1z"/><path transform="translate(474,78) scale(8)" fill="#a05a30" d="M7 2h1v1h-1zM11 2h1v1h-1z"/><path class="fine" d="M482 78v112M490 78v112M498 78v112M506 78v112M514 78v112M522 78v112M530 78v112M538 78v112M546 78v112M554 78v112M562 78v112M570 78v112M578 78v112M474 86h112M474 94h112M474 102h112M474 110h112M474 118h112M474 126h112M474 134h112M474 142h112M474 150h112M474 158h112M474 166h112M474 174h112M474 182h112"/><line x1="474" y1="78" x2="474" y2="190" class="grid"/><line x1="530" y1="78" x2="530" y2="190" class="grid"/><line x1="586" y1="78" x2="586" y2="190" class="grid"/><line x1="474" y1="78" x2="586" y2="78" class="grid"/><line x1="474" y1="134" x2="586" y2="134" class="grid"/><line x1="474" y1="190" x2="586" y2="190" class="grid"/><text x="628" y="60" class="cap">y = 12</text><rect x="628" y="78" width="112" height="112" fill="#fbfbfb" stroke="#bbb"/><path transform="translate(628,78) scale(8)" fill="#a05a30" d="M7 0h7v1h-7zM7 1h7v1h-7zM0 7h2v1h-2zM0 8h2v1h-2zM0 9h2v1h-2zM0 10h2v1h-2zM0 11h2v1h-2zM0 12h2v1h-2zM0 13h2v1h-2z"/><path transform="translate(628,78) scale(8)" fill="#96613a" d="M1 1h1v1h-1zM5 1h1v1h-1zM1 5h1v1h-1zM5 5h1v1h-1z"/><path transform="translate(628,78) scale(8)" fill="#b8863f" d="M2 1h1v1h-1z"/><path class="fine" d="M636 78v112M644 78v112M652 78v112M660 78v112M668 78v112M676 78v112M684 78v112M692 78v112M700 78v112M708 78v112M716 78v112M724 78v112M732 78v112M628 86h112M628 94h112M628 102h112M628 110h112M628 118h112M628 126h112M628 134h112M628 142h112M628 150h112M628 158h112M628 166h112M628 174h112M628 182h112"/><line x1="628" y1="78" x2="628" y2="190" class="grid"/><line x1="684" y1="78" x2="684" y2="190" class="grid"/><line x1="740" y1="78" x2="740" y2="190" class="grid"/><line x1="628" y1="78" x2="740" y2="78" class="grid"/><line x1="628" y1="134" x2="740" y2="134" class="grid"/><line x1="628" y1="190" x2="740" y2="190" class="grid"/><text x="782" y="60" class="cap">y = 13–19</text><rect x="782" y="78" width="112" height="112" fill="#fbfbfb" stroke="#bbb"/><path transform="translate(782,78) scale(8)" fill="#96613a" d="M1 1h1v1h-1zM5 1h1v1h-1zM1 5h1v1h-1zM5 5h1v1h-1z"/><path transform="translate(782,78) scale(8)" fill="#b8863f" d="M2 1h1v1h-1z"/><path class="fine" d="M790 78v112M798 78v112M806 78v112M814 78v112M822 78v112M830 78v112M838 78v112M846 78v112M854 78v112M862 78v112M870 78v112M878 78v112M886 78v112M782 86h112M782 94h112M782 102h112M782 110h112M782 118h112M782 126h112M782 134h112M782 142h112M782 150h112M782 158h112M782 166h112M782 174h112M782 182h112"/><line x1="782" y1="78" x2="782" y2="190" class="grid"/><line x1="838" y1="78" x2="838" y2="190" class="grid"/><line x1="894" y1="78" x2="894" y2="190" class="grid"/><line x1="782" y1="78" x2="894" y2="78" class="grid"/><line x1="782" y1="134" x2="894" y2="134" class="grid"/><line x1="782" y1="190" x2="894" y2="190" class="grid"/><text x="936" y="60" class="cap">y = 20</text><rect x="936" y="78" width="112" height="112" fill="#fbfbfb" stroke="#bbb"/><path transform="translate(936,78) scale(8)" fill="#b06437" d="M1 1h1v1h-1zM3 1h3v1h-3zM1 2h5v1h-5zM1 3h5v1h-5zM1 4h5v1h-5zM1 5h5v1h-5z"/><path transform="translate(936,78) scale(8)" fill="#b8863f" d="M2 1h1v1h-1z"/><path class="fine" d="M944 78v112M952 78v112M960 78v112M968 78v112M976 78v112M984 78v112M992 78v112M1000 78v112M1008 78v112M1016 78v112M1024 78v112M1032 78v112M1040 78v112M936 86h112M936 94h112M936 102h112M936 110h112M936 118h112M936 126h112M936 134h112M936 142h112M936 150h112M936 158h112M936 166h112M936 174h112M936 182h112"/><line x1="936" y1="78" x2="936" y2="190" class="grid"/><line x1="992" y1="78" x2="992" y2="190" class="grid"/><line x1="1048" y1="78" x2="1048" y2="190" class="grid"/><line x1="936" y1="78" x2="1048" y2="78" class="grid"/><line x1="936" y1="134" x2="1048" y2="134" class="grid"/><line x1="936" y1="190" x2="1048" y2="190" class="grid"/><text x="1090" y="60" class="cap">y = 21</text><rect x="1090" y="78" width="112" height="112" fill="#fbfbfb" stroke="#bbb"/><path transform="translate(1090,78) scale(8)" fill="#96613a" d="M1 1h1v1h-1zM5 1h1v1h-1zM1 5h1v1h-1zM5 5h1v1h-1z"/><path transform="translate(1090,78) scale(8)" fill="#b8863f" d="M2 1h1v1h-1z"/><path transform="translate(1090,78) scale(8)" fill="#a05a30" d="M4 1h1v1h-1zM1 2h1v1h-1zM5 2h1v1h-1zM1 3h1v1h-1zM5 3h1v1h-1zM1 4h1v1h-1zM5 4h1v1h-1zM2 5h3v1h-3z"/><path transform="translate(1090,78) scale(8)" fill="#25403f" d="M2 4h1v1h-1z"/><path transform="translate(1090,78) scale(8)" fill="#b9852f" d="M4 4h1v1h-1z"/><path class="fine" d="M1098 78v112M1106 78v112M1114 78v112M1122 78v112M1130 78v112M1138 78v112M1146 78v112M1154 78v112M1162 78v112M1170 78v112M1178 78v112M1186 78v112M1194 78v112M1090 86h112M1090 94h112M1090 102h112M1090 110h112M1090 118h112M1090 126h112M1090 134h112M1090 142h112M1090 150h112M1090 158h112M1090 166h112M1090 174h112M1090 182h112"/><line x1="1090" y1="78" x2="1090" y2="190" class="grid"/><line x1="1146" y1="78" x2="1146" y2="190" class="grid"/><line x1="1202" y1="78" x2="1202" y2="190" class="grid"/><line x1="1090" y1="78" x2="1202" y2="78" class="grid"/><line x1="1090" y1="134" x2="1202" y2="134" class="grid"/><line x1="1090" y1="190" x2="1202" y2="190" class="grid"/><text x="12" y="232" class="cap">y = 22–27</text><rect x="12" y="250" width="112" height="112" fill="#fbfbfb" stroke="#bbb"/><path class="fine" d="M20 250v112M28 250v112M36 250v112M44 250v112M52 250v112M60 250v112M68 250v112M76 250v112M84 250v112M92 250v112M100 250v112M108 250v112M116 250v112M12 258h112M12 266h112M12 274h112M12 282h112M12 290h112M12 298h112M12 306h112M12 314h112M12 322h112M12 330h112M12 338h112M12 346h112M12 354h112"/><line x1="12" y1="250" x2="12" y2="362" class="grid"/><line x1="68" y1="250" x2="68" y2="362" class="grid"/><line x1="124" y1="250" x2="124" y2="362" class="grid"/><line x1="12" y1="250" x2="124" y2="250" class="grid"/><line x1="12" y1="306" x2="124" y2="306" class="grid"/><line x1="12" y1="362" x2="124" y2="362" class="grid"/><text x="166" y="232" class="cap">단면 z = 7</text><rect x="166" y="250" width="112" height="224" fill="#fbfbfb" stroke="#bbb"/><path transform="translate(166,250) scale(8)" fill="#a05a30" d="M0 15h2v1h-2z"/><path transform="translate(166,250) scale(8)" fill="#96613a" d="M0 16h2v1h-2zM0 17h2v1h-2zM0 18h2v1h-2zM0 19h2v1h-2zM0 20h2v1h-2z"/><path transform="translate(166,250) scale(8)" fill="#7d5d41" d="M2 20h5v1h-5zM8 20h6v1h-6zM0 21h14v1h-14zM0 22h14v1h-14zM0 23h14v1h-14zM0 24h14v1h-14zM0 25h14v1h-14zM0 26h14v1h-14zM0 27h14v1h-14z"/><path transform="translate(166,250) scale(8)" fill="#8d8888" d="M7 20h1v1h-1z"/><path class="fine" d="M174 250v224M182 250v224M190 250v224M198 250v224M206 250v224M214 250v224M222 250v224M230 250v224M238 250v224M246 250v224M254 250v224M262 250v224M270 250v224M166 258h112M166 266h112M166 274h112M166 282h112M166 290h112M166 298h112M166 306h112M166 314h112M166 322h112M166 330h112M166 338h112M166 346h112M166 354h112M166 362h112M166 370h112M166 378h112M166 386h112M166 394h112M166 402h112M166 410h112M166 418h112M166 426h112M166 434h112M166 442h112M166 450h112M166 458h112M166 466h112"/><line x1="166" y1="250" x2="166" y2="474" class="grid"/><line x1="222" y1="250" x2="222" y2="474" class="grid"/><line x1="278" y1="250" x2="278" y2="474" class="grid"/><line x1="166" y1="250" x2="278" y2="250" class="grid"/><line x1="166" y1="306" x2="278" y2="306" class="grid"/><line x1="166" y1="362" x2="278" y2="362" class="grid"/><line x1="166" y1="418" x2="278" y2="418" class="grid"/><line x1="166" y1="474" x2="278" y2="474" class="grid"/><text x="320" y="232" class="cap">단면 x = 7</text><rect x="320" y="250" width="112" height="224" fill="#fbfbfb" stroke="#bbb"/><path transform="translate(320,250) scale(8)" fill="#a05a30" d="M0 15h2v1h-2zM2 16h1v1h-1zM2 17h1v1h-1zM2 18h1v1h-1zM2 19h1v1h-1z"/><path transform="translate(320,250) scale(8)" fill="#96613a" d="M0 16h2v1h-2zM0 17h2v1h-2zM0 18h2v1h-2zM0 19h2v1h-2zM0 20h2v1h-2z"/><path transform="translate(320,250) scale(8)" fill="#8d8888" d="M7 20h1v1h-1z"/><path transform="translate(320,250) scale(8)" fill="#7d5d41" d="M8 20h6v1h-6zM0 21h2v1h-2zM7 21h7v1h-7zM0 22h2v1h-2zM7 22h7v1h-7zM0 23h2v1h-2zM7 23h7v1h-7zM0 24h2v1h-2zM7 24h7v1h-7zM0 25h2v1h-2zM7 25h7v1h-7zM0 26h2v1h-2zM7 26h7v1h-7zM0 27h2v1h-2zM7 27h7v1h-7z"/><path class="fine" d="M328 250v224M336 250v224M344 250v224M352 250v224M360 250v224M368 250v224M376 250v224M384 250v224M392 250v224M400 250v224M408 250v224M416 250v224M424 250v224M320 258h112M320 266h112M320 274h112M320 282h112M320 290h112M320 298h112M320 306h112M320 314h112M320 322h112M320 330h112M320 338h112M320 346h112M320 354h112M320 362h112M320 370h112M320 378h112M320 386h112M320 394h112M320 402h112M320 410h112M320 418h112M320 426h112M320 434h112M320 442h112M320 450h112M320 458h112M320 466h112"/><line x1="320" y1="250" x2="320" y2="474" class="grid"/><line x1="376" y1="250" x2="376" y2="474" class="grid"/><line x1="432" y1="250" x2="432" y2="474" class="grid"/><line x1="320" y1="250" x2="432" y2="250" class="grid"/><line x1="320" y1="306" x2="432" y2="306" class="grid"/><line x1="320" y1="362" x2="432" y2="362" class="grid"/><line x1="320" y1="418" x2="432" y2="418" class="grid"/><line x1="320" y1="474" x2="432" y2="474" class="grid"/><text x="12" y="530" class="cap">범례</text><rect x="12" y="546" width="12" height="12" fill="#b9852f" stroke="#999"/><text x="30" y="557" class="leg">c  상자  chest</text><rect x="302" y="546" width="12" height="12" fill="#25403f" stroke="#999"/><text x="320" y="557" class="leg">S  몬스터 스포너  spawner</text><rect x="592" y="546" width="12" height="12" fill="#b8863f" stroke="#999"/><text x="610" y="557" class="leg">H  사다리  ladder</text><rect x="882" y="546" width="12" height="12" fill="#ffc94d" stroke="#999"/><text x="900" y="557" class="leg">*  랜턴  lantern</text><rect x="12" y="566" width="12" height="12" fill="#96613a" stroke="#999"/><text x="30" y="577" class="leg">L  아카시아 원목  acacia_log</text><rect x="302" y="566" width="12" height="12" fill="#b06437" stroke="#999"/><text x="320" y="577" class="leg">w  아카시아 판자  acacia_planks</text><rect x="592" y="566" width="12" height="12" fill="#a05a30" stroke="#999"/><text x="610" y="577" class="leg">f  아카시아 울타리  acacia_fence</text><rect x="882" y="566" width="12" height="12" fill="#7d5d41" stroke="#999"/><text x="900" y="577" class="leg">d  거친 흙  coarse_dirt</text><rect x="12" y="586" width="12" height="12" fill="#8d8888" stroke="#999"/><text x="30" y="597" class="leg">g  자갈  gravel</text><rect x="302" y="586" width="12" height="12" fill="#ff2fa0" stroke="#999"/><text x="320" y="597" class="leg">J  직소  jigsaw</text></svg>