<svg xmlns="http://www.w3.org/2000/svg" width="1278" height="1824" viewBox="0 0 1278 1824" shape-rendering="crispEdges" font-family="Consolas,'Malgun Gothic','Noto Sans KR',monospace"><style>text{fill:#222;shape-rendering:auto}.cap{font-size:13px;font-weight:bold}.leg{font-size:12px}.sub{font-size:12px;fill:#666}.tick{font-size:8px;fill:#999;text-anchor:middle}.arrow{font-size:10px;fill:#fff;text-anchor:middle}.fine{stroke:#000;stroke-opacity:.07;stroke-width:1;fill:none}.grid{stroke:#000;stroke-opacity:.30;stroke-width:1}</style><rect width="100%" height="100%" fill="#fff"/><text x="12" y="22" class="cap" font-size="16">pyramid / skin_top   35×18×35</text><text x="12" y="40" class="sub">북쪽이 위, 오른쪽이 동쪽. 옅은 선은 7칸 격자. 분홍 점은 직소이고 화살표는 그 직소가 보는 방향이다.</text><text x="12" y="60" class="cap">y = 0</text><rect x="12" y="78" width="280" height="280" fill="#fbfbfb" stroke="#bbb"/><path transform="translate(12,78) scale(8)" fill="#ff2fa0" d="M0 0h1v1h-1zM18 24h1v1h-1z"/><path transform="translate(12,78) scale(8)" fill="#ddd0a1" d="M1 0h34v1h-34zM0 1h35v1h-35zM0 2h35v1h-35zM0 3h35v1h-35zM0 4h35v1h-35zM0 5h35v1h-35zM0 6h35v1h-35zM0 7h35v1h-35zM0 8h35v1h-35zM0 9h35v1h-35zM0 10h35v1h-35zM0 11h35v1h-35zM0 12h35v1h-35zM0 13h35v1h-35zM0 14h35v1h-35zM0 15h35v1h-35zM0 16h35v1h-35zM0 17h35v1h-35zM0 18h35v1h-35zM0 19h35v1h-35zM0 20h35v1h-35zM0 21h35v1h-35zM0 22h35v1h-35zM0 23h35v1h-35zM0 24h18v1h-18zM19 24h16v1h-16zM0 25h35v1h-35zM0 26h35v1h-35zM0 27h35v1h-35zM0 28h35v1h-35zM0 29h35v1h-35zM0 30h35v1h-35zM0 31h35v1h-35zM0 32h35v1h-35zM0 33h35v1h-35zM0 34h35v1h-35z"/><path class="fine" d="M20 78v280M28 78v280M36 78v280M44 78v280M52 78v280M60 78v280M68 78v280M76 78v280M84 78v280M92 78v280M100 78v280M108 78v280M116 78v280M124 78v280M132 78v280M140 78v280M148 78v280M156 78v280M164 78v280M172 78v280M180 78v280M188 78v280M196 78v280M204 78v280M212 78v280M220 78v280M228 78v280M236 78v280M244 78v280M252 78v280M260 78v280M268 78v280M276 78v280M284 78v280M12 86h280M12 94h280M12 102h280M12 110h280M12 118h280M12 126h280M12 134h280M12 142h280M12 150h280M12 158h280M12 166h280M12 174h280M12 182h280M12 190h280M12 198h280M12 206h280M12 214h280M12 222h280M12 230h280M12 238h280M12 246h280M12 254h280M12 262h280M12 270h280M12 278h280M12 286h280M12 294h280M12 302h280M12 310h280M12 318h280M12 326h280M12 334h280M12 342h280M12 350h280"/><line x1="12" y1="78" x2="12" y2="358" class="grid"/><line x1="68" y1="78" x2="68" y2="358" class="grid"/><line x1="124" y1="78" x2="124" y2="358" class="grid"/><line x1="180" y1="78" x2="180" y2="358" class="grid"/><line x1="236" y1="78" x2="236" y2="358" class="grid"/><line x1="292" y1="78" x2="292" y2="358" class="grid"/><line x1="12" y1="78" x2="292" y2="78" class="grid"/><line x1="12" y1="134" x2="292" y2="134" class="grid"/><line x1="12" y1="190" x2="292" y2="190" class="grid"/><line x1="12" y1="246" x2="292" y2="246" class="grid"/><line x1="12" y1="302" x2="292" y2="302" class="grid"/><line x1="12" y1="358" x2="292" y2="358" class="grid"/><circle cx="16.0" cy="82.0" r="4.0" fill="#ff2fa0" stroke="#fff"/><text x="16.0" y="84.6" class="arrow" font-size="7.2">◇</text><circle cx="160.0" cy="274.0" r="4.0" fill="#ff2fa0" stroke="#fff"/><text x="160.0" y="276.6" class="arrow" font-size="7.2">▶</text><text x="334" y="60" class="cap">y = 1</text><rect x="334" y="78" width="280" height="280" fill="#fbfbfb" stroke="#bbb"/><path transform="translate(334,78) scale(8)" fill="#ffffff" d="M0 0h35v1h-35zM0 1h1v1h-1zM34 1h1v1h-1zM0 2h1v1h-1zM34 2h1v1h-1zM0 3h1v1h-1zM34 3h1v1h-1zM0 4h1v1h-1zM34 4h1v1h-1zM0 5h1v1h-1zM34 5h1v1h-1zM0 6h1v1h-1zM34 6h1v1h-1zM0 7h1v1h-1zM34 7h1v1h-1zM0 8h1v1h-1zM34 8h1v1h-1zM0 9h1v1h-1zM34 9h1v1h-1zM0 10h1v1h-1zM34 10h1v1h-1zM0 11h1v1h-1zM34 11h1v1h-1zM0 12h1v1h-1zM34 12h1v1h-1zM0 13h1v1h-1zM34 13h1v1h-1zM0 14h1v1h-1zM34 14h1v1h-1zM0 15h1v1h-1zM34 15h1v1h-1zM0 16h1v1h-1zM34 16h1v1h-1zM0 17h1v1h-1zM34 17h1v1h-1zM0 18h1v1h-1zM34 18h1v1h-1zM0 19h1v1h-1zM34 19h1v1h-1zM0 20h1v1h-1zM34 20h1v1h-1zM0 21h1v1h-1zM34 21h1v1h-1zM0 22h1v1h-1zM34 22h1v1h-1zM0 23h1v1h-1zM34 23h1v1h-1zM0 24h1v1h-1zM34 24h1v1h-1zM0 25h1v1h-1zM34 25h1v1h-1zM0 26h1v1h-1zM34 26h1v1h-1zM0 27h1v1h-1zM34 27h1v1h-1zM0 28h1v1h-1zM34 28h1v1h-1zM0 29h1v1h-1zM34 29h1v1h-1zM0 30h1v1h-1zM34 30h1v1h-1zM0 31h1v1h-1zM34 31h1v1h-1zM0 32h1v1h-1zM34 32h1v1h-1zM0 33h1v1h-1zM34 33h1v1h-1zM0 34h35v1h-35z"/><path transform="translate(334,78) scale(8)" fill="#ddd0a1" d="M1 1h33v1h-33zM1 2h33v1h-33zM1 3h33v1h-33zM1 4h33v1h-33zM1 5h33v1h-33zM1 6h33v1h-33zM1 7h33v1h-33zM1 8h33v1h-33zM1 9h33v1h-33zM1 10h33v1h-33zM1 11h33v1h-33zM1 12h33v1h-33zM1 13h33v1h-33zM1 14h33v1h-33zM1 15h33v1h-33zM1 16h33v1h-33zM1 17h33v1h-33zM1 18h33v1h-33zM1 19h33v1h-33zM1 20h33v1h-33zM1 21h33v1h-33zM1 22h33v1h-33zM1 23h33v1h-33zM1 24h33v1h-33zM1 25h33v1h-33zM1 26h33v1h-33zM1 27h33v1h-33zM1 28h33v1h-33zM1 29h33v1h-33zM1 30h33v1h-33zM1 31h33v1h-33zM1 32h33v1h-33zM1 33h33v1h-33z"/><path class="fine" d="M342 78v280M350 78v280M358 78v280M366 78v280M374 78v280M382 78v280M390 78v280M398 78v280M406 78v280M414 78v280M422 78v280M430 78v280M438 78v280M446 78v280M454 78v280M462 78v280M470 78v280M478 78v280M486 78v280M494 78v280M502 78v280M510 78v280M518 78v280M526 78v280M534 78v280M542 78v280M550 78v280M558 78v280M566 78v280M574 78v280M582 78v280M590 78v280M598 78v280M606 78v280M334 86h280M334 94h280M334 102h280M334 110h280M334 118h280M334 126h280M334 134h280M334 142h280M334 150h280M334 158h280M334 166h280M334 174h280M334 182h280M334 190h280M334 198h280M334 206h280M334 214h280M334 222h280M334 230h280M334 238h280M334 246h280M334 254h280M334 262h280M334 270h280M334 278h280M334 286h280M334 294h280M334 302h280M334 310h280M334 318h280M334 326h280M334 334h280M334 342h280M334 350h280"/><line x1="334" y1="78" x2="334" y2="358" class="grid"/><line x1="390" y1="78" x2="390" y2="358" class="grid"/><line x1="446" y1="78" x2="446" y2="358" class="grid"/><line x1="502" y1="78" x2="502" y2="358" class="grid"/><line x1="558" y1="78" x2="558" y2="358" class="grid"/><line x1="614" y1="78" x2="614" y2="358" class="grid"/><line x1="334" y1="78" x2="614" y2="78" class="grid"/><line x1="334" y1="134" x2="614" y2="134" class="grid"/><line x1="334" y1="190" x2="614" y2="190" class="grid"/><line x1="334" y1="246" x2="614" y2="246" class="grid"/><line x1="334" y1="302" x2="614" y2="302" class="grid"/><line x1="334" y1="358" x2="614" y2="358" class="grid"/><text x="656" y="60" class="cap">y = 2</text><rect x="656" y="78" width="280" height="280" fill="#fbfbfb" stroke="#bbb"/><path transform="translate(656,78) scale(8)" fill="#ffffff" d="M0 0h35v1h-35zM0 1h35v1h-35zM0 2h2v1h-2zM33 2h2v1h-2zM0 3h2v1h-2zM33 3h2v1h-2zM0 4h2v1h-2zM33 4h2v1h-2zM0 5h2v1h-2zM33 5h2v1h-2zM0 6h2v1h-2zM33 6h2v1h-2zM0 7h2v1h-2zM33 7h2v1h-2zM0 8h2v1h-2zM33 8h2v1h-2zM0 9h2v1h-2zM33 9h2v1h-2zM0 10h2v1h-2zM33 10h2v1h-2zM0 11h2v1h-2zM33 11h2v1h-2zM0 12h2v1h-2zM33 12h2v1h-2zM0 13h2v1h-2zM33 13h2v1h-2zM0 14h2v1h-2zM33 14h2v1h-2zM0 15h2v1h-2zM33 15h2v1h-2zM0 16h2v1h-2zM33 16h2v1h-2zM0 17h2v1h-2zM33 17h2v1h-2zM0 18h2v1h-2zM33 18h2v1h-2zM0 19h2v1h-2zM33 19h2v1h-2zM0 20h2v1h-2zM33 20h2v1h-2zM0 21h2v1h-2zM33 21h2v1h-2zM0 22h2v1h-2zM33 22h2v1h-2zM0 23h2v1h-2zM33 23h2v1h-2zM0 24h2v1h-2zM33 24h2v1h-2zM0 25h2v1h-2zM33 25h2v1h-2zM0 26h2v1h-2zM33 26h2v1h-2zM0 27h2v1h-2zM33 27h2v1h-2zM0 28h2v1h-2zM33 28h2v1h-2zM0 29h2v1h-2zM33 29h2v1h-2zM0 30h2v1h-2zM33 30h2v1h-2zM0 31h2v1h-2zM33 31h2v1h-2zM0 32h2v1h-2zM33 32h2v1h-2zM0 33h35v1h-35zM0 34h35v1h-35z"/><path transform="translate(656,78) scale(8)" fill="#ddd0a1" d="M2 2h31v1h-31zM2 3h31v1h-31zM2 4h31v1h-31zM2 5h31v1h-31zM2 6h31v1h-31zM2 7h31v1h-31zM2 8h31v1h-31zM2 9h31v1h-31zM2 10h31v1h-31zM2 11h31v1h-31zM2 12h31v1h-31zM2 13h31v1h-31zM2 14h31v1h-31zM2 15h31v1h-31zM2 16h31v1h-31zM2 17h31v1h-31zM2 18h31v1h-31zM2 19h31v1h-31zM2 20h31v1h-31zM2 21h31v1h-31zM2 22h31v1h-31zM2 23h31v1h-31zM2 24h31v1h-31zM2 25h31v1h-31zM2 26h31v1h-31zM2 27h31v1h-31zM2 28h31v1h-31zM2 29h31v1h-31zM2 30h31v1h-31zM2 31h31v1h-31zM2 32h31v1h-31z"/><path class="fine" d="M664 78v280M672 78v280M680 78v280M688 78v280M696 78v280M704 78v280M712 78v280M720 78v280M728 78v280M736 78v280M744 78v280M752 78v280M760 78v280M768 78v280M776 78v280M784 78v280M792 78v280M800 78v280M808 78v280M816 78v280M824 78v280M832 78v280M840 78v280M848 78v280M856 78v280M864 78v280M872 78v280M880 78v280M888 78v280M896 78v280M904 78v280M912 78v280M920 78v280M928 78v280M656 86h280M656 94h280M656 102h280M656 110h280M656 118h280M656 126h280M656 134h280M656 142h280M656 150h280M656 158h280M656 166h280M656 174h280M656 182h280M656 190h280M656 198h280M656 206h280M656 214h280M656 222h280M656 230h280M656 238h280M656 246h280M656 254h280M656 262h280M656 270h280M656 278h280M656 286h280M656 294h280M656 302h280M656 310h280M656 318h280M656 326h280M656 334h280M656 342h280M656 350h280"/><line x1="656" y1="78" x2="656" y2="358" class="grid"/><line x1="712" y1="78" x2="712" y2="358" class="grid"/><line x1="768" y1="78" x2="768" y2="358" class="grid"/><line x1="824" y1="78" x2="824" y2="358" class="grid"/><line x1="880" y1="78" x2="880" y2="358" class="grid"/><line x1="936" y1="78" x2="936" y2="358" class="grid"/><line x1="656" y1="78" x2="936" y2="78" class="grid"/><line x1="656" y1="134" x2="936" y2="134" class="grid"/><line x1="656" y1="190" x2="936" y2="190" class="grid"/><line x1="656" y1="246" x2="936" y2="246" class="grid"/><line x1="656" y1="302" x2="936" y2="302" class="grid"/><line x1="656" y1="358" x2="936" y2="358" class="grid"/><text x="978" y="60" class="cap">y = 3</text><rect x="978" y="78" width="280" height="280" fill="#fbfbfb" stroke="#bbb"/><path transform="translate(978,78) scale(8)" fill="#ffffff" d="M0 0h35v1h-35zM0 1h35v1h-35zM0 2h35v1h-35zM0 3h3v1h-3zM32 3h3v1h-3zM0 4h3v1h-3zM32 4h3v1h-3zM0 5h3v1h-3zM32 5h3v1h-3zM0 6h3v1h-3zM32 6h3v1h-3zM0 7h3v1h-3zM32 7h3v1h-3zM0 8h3v1h-3zM32 8h3v1h-3zM0 9h3v1h-3zM32 9h3v1h-3zM0 10h3v1h-3zM32 10h3v1h-3zM0 11h3v1h-3zM32 11h3v1h-3zM0 12h3v1h-3zM32 12h3v1h-3zM0 13h3v1h-3zM32 13h3v1h-3zM0 14h3v1h-3zM32 14h3v1h-3zM0 15h3v1h-3zM32 15h3v1h-3zM0 16h3v1h-3zM32 16h3v1h-3zM0 17h3v1h-3zM32 17h3v1h-3zM0 18h3v1h-3zM32 18h3v1h-3zM0 19h3v1h-3zM32 19h3v1h-3zM0 20h3v1h-3zM32 20h3v1h-3zM0 21h3v1h-3zM32 21h3v1h-3zM0 22h3v1h-3zM32 22h3v1h-3zM0 23h3v1h-3zM32 23h3v1h-3zM0 24h3v1h-3zM32 24h3v1h-3zM0 25h3v1h-3zM32 25h3v1h-3zM0 26h3v1h-3zM32 26h3v1h-3zM0 27h3v1h-3zM32 27h3v1h-3zM0 28h3v1h-3zM32 28h3v1h-3zM0 29h3v1h-3zM32 29h3v1h-3zM0 30h3v1h-3zM32 30h3v1h-3zM0 31h3v1h-3zM32 31h3v1h-3zM0 32h35v1h-35zM0 33h35v1h-35zM0 34h35v1h-35z"/><path transform="translate(978,78) scale(8)" fill="#ddd0a1" d="M3 3h29v1h-29zM3 4h29v1h-29zM3 5h29v1h-29zM3 6h29v1h-29zM3 7h29v1h-29zM3 8h29v1h-29zM3 9h29v1h-29zM3 10h29v1h-29zM3 11h29v1h-29zM3 12h29v1h-29zM3 13h29v1h-29zM3 14h29v1h-29zM3 15h29v1h-29zM3 16h29v1h-29zM3 17h29v1h-29zM3 18h29v1h-29zM3 19h29v1h-29zM3 20h29v1h-29zM3 21h29v1h-29zM3 22h29v1h-29zM3 23h29v1h-29zM3 24h29v1h-29zM3 25h29v1h-29zM3 26h29v1h-29zM3 27h29v1h-29zM3 28h29v1h-29zM3 29h29v1h-29zM3 30h29v1h-29zM3 31h29v1h-29z"/><path class="fine" d="M986 78v280M994 78v280M1002 78v280M1010 78v280M1018 78v280M1026 78v280M1034 78v280M1042 78v280M1050 78v280M1058 78v280M1066 78v280M1074 78v280M1082 78v280M1090 78v280M1098 78v280M1106 78v280M1114 78v280M1122 78v280M1130 78v280M1138 78v280M1146 78v280M1154 78v280M1162 78v280M1170 78v280M1178 78v280M1186 78v280M1194 78v280M1202 78v280M1210 78v280M1218 78v280M1226 78v280M1234 78v280M1242 78v280M1250 78v280M978 86h280M978 94h280M978 102h280M978 110h280M978 118h280M978 126h280M978 134h280M978 142h280M978 150h280M978 158h280M978 166h280M978 174h280M978 182h280M978 190h280M978 198h280M978 206h280M978 214h280M978 222h280M978 230h280M978 238h280M978 246h280M978 254h280M978 262h280M978 270h280M978 278h280M978 286h280M978 294h280M978 302h280M978 310h280M978 318h280M978 326h280M978 334h280M978 342h280M978 350h280"/><line x1="978" y1="78" x2="978" y2="358" class="grid"/><line x1="1034" y1="78" x2="1034" y2="358" class="grid"/><line x1="1090" y1="78" x2="1090" y2="358" class="grid"/><line x1="1146" y1="78" x2="1146" y2="358" class="grid"/><line x1="1202" y1="78" x2="1202" y2="358" class="grid"/><line x1="1258" y1="78" x2="1258" y2="358" class="grid"/><line x1="978" y1="78" x2="1258" y2="78" class="grid"/><line x1="978" y1="134" x2="1258" y2="134" class="grid"/><line x1="978" y1="190" x2="1258" y2="190" class="grid"/><line x1="978" y1="246" x2="1258" y2="246" class="grid"/><line x1="978" y1="302" x2="1258" y2="302" class="grid"/><line x1="978" y1="358" x2="1258" y2="358" class="grid"/><text x="12" y="400" class="cap">y = 4</text><rect x="12" y="418" width="280" height="280" fill="#fbfbfb" stroke="#bbb"/><path transform="translate(12,418) scale(8)" fill="#ffffff" d="M0 0h35v1h-35zM0 1h35v1h-35zM0 2h35v1h-35zM0 3h35v1h-35zM0 4h4v1h-4zM31 4h4v1h-4zM0 5h4v1h-4zM31 5h4v1h-4zM0 6h4v1h-4zM31 6h4v1h-4zM0 7h4v1h-4zM31 7h4v1h-4zM0 8h4v1h-4zM31 8h4v1h-4zM0 9h4v1h-4zM31 9h4v1h-4zM0 10h4v1h-4zM31 10h4v1h-4zM0 11h4v1h-4zM31 11h4v1h-4zM0 12h4v1h-4zM31 12h4v1h-4zM0 13h4v1h-4zM31 13h4v1h-4zM0 14h4v1h-4zM31 14h4v1h-4zM0 15h4v1h-4zM31 15h4v1h-4zM0 16h4v1h-4zM31 16h4v1h-4zM0 17h4v1h-4zM31 17h4v1h-4zM0 18h4v1h-4zM31 18h4v1h-4zM0 19h4v1h-4zM31 19h4v1h-4zM0 20h4v1h-4zM31 20h4v1h-4zM0 21h4v1h-4zM31 21h4v1h-4zM0 22h4v1h-4zM31 22h4v1h-4zM0 23h4v1h-4zM31 23h4v1h-4zM0 24h4v1h-4zM31 24h4v1h-4zM0 25h4v1h-4zM31 25h4v1h-4zM0 26h4v1h-4zM31 26h4v1h-4zM0 27h4v1h-4zM31 27h4v1h-4zM0 28h4v1h-4zM31 28h4v1h-4zM0 29h4v1h-4zM31 29h4v1h-4zM0 30h4v1h-4zM31 30h4v1h-4zM0 31h35v1h-35zM0 32h35v1h-35zM0 33h35v1h-35zM0 34h35v1h-35z"/><path transform="translate(12,418) scale(8)" fill="#ddd0a1" d="M4 4h27v1h-27zM4 5h27v1h-27zM4 6h27v1h-27zM4 7h27v1h-27zM4 8h27v1h-27zM4 9h27v1h-27zM4 10h27v1h-27zM4 11h27v1h-27zM4 12h27v1h-27zM4 13h27v1h-27zM4 14h27v1h-27zM4 15h27v1h-27zM4 16h27v1h-27zM4 17h27v1h-27zM4 18h27v1h-27zM4 19h27v1h-27zM4 20h27v1h-27zM4 21h27v1h-27zM4 22h27v1h-27zM4 23h27v1h-27zM4 24h27v1h-27zM4 25h27v1h-27zM4 26h27v1h-27zM4 27h27v1h-27zM4 28h27v1h-27zM4 29h27v1h-27zM4 30h27v1h-27z"/><path class="fine" d="M20 418v280M28 418v280M36 418v280M44 418v280M52 418v280M60 418v280M68 418v280M76 418v280M84 418v280M92 418v280M100 418v280M108 418v280M116 418v280M124 418v280M132 418v280M140 418v280M148 418v280M156 418v280M164 418v280M172 418v280M180 418v280M188 418v280M196 418v280M204 418v280M212 418v280M220 418v280M228 418v280M236 418v280M244 418v280M252 418v280M260 418v280M268 418v280M276 418v280M284 418v280M12 426h280M12 434h280M12 442h280M12 450h280M12 458h280M12 466h280M12 474h280M12 482h280M12 490h280M12 498h280M12 506h280M12 514h280M12 522h280M12 530h280M12 538h280M12 546h280M12 554h280M12 562h280M12 570h280M12 578h280M12 586h280M12 594h280M12 602h280M12 610h280M12 618h280M12 626h280M12 634h280M12 642h280M12 650h280M12 658h280M12 666h280M12 674h280M12 682h280M12 690h280"/><line x1="12" y1="418" x2="12" y2="698" class="grid"/><line x1="68" y1="418" x2="68" y2="698" class="grid"/><line x1="124" y1="418" x2="124" y2="698" class="grid"/><line x1="180" y1="418" x2="180" y2="698" class="grid"/><line x1="236" y1="418" x2="236" y2="698" class="grid"/><line x1="292" y1="418" x2="292" y2="698" class="grid"/><line x1="12" y1="418" x2="292" y2="418" class="grid"/><line x1="12" y1="474" x2="292" y2="474" class="grid"/><line x1="12" y1="530" x2="292" y2="530" class="grid"/><line x1="12" y1="586" x2="292" y2="586" class="grid"/><line x1="12" y1="642" x2="292" y2="642" class="grid"/><line x1="12" y1="698" x2="292" y2="698" class="grid"/><text x="334" y="400" class="cap">y = 5</text><rect x="334" y="418" width="280" height="280" fill="#fbfbfb" stroke="#bbb"/><path transform="translate(334,418) scale(8)" fill="#ffffff" d="M0 0h35v1h-35zM0 1h35v1h-35zM0 2h35v1h-35zM0 3h35v1h-35zM0 4h35v1h-35zM0 5h5v1h-5zM30 5h5v1h-5zM0 6h5v1h-5zM30 6h5v1h-5zM0 7h5v1h-5zM30 7h5v1h-5zM0 8h5v1h-5zM30 8h5v1h-5zM0 9h5v1h-5zM30 9h5v1h-5zM0 10h5v1h-5zM30 10h5v1h-5zM0 11h5v1h-5zM30 11h5v1h-5zM0 12h5v1h-5zM30 12h5v1h-5zM0 13h5v1h-5zM30 13h5v1h-5zM0 14h5v1h-5zM30 14h5v1h-5zM0 15h5v1h-5zM30 15h5v1h-5zM0 16h5v1h-5zM30 16h5v1h-5zM0 17h5v1h-5zM30 17h5v1h-5zM0 18h5v1h-5zM30 18h5v1h-5zM0 19h5v1h-5zM30 19h5v1h-5zM0 20h5v1h-5zM30 20h5v1h-5zM0 21h5v1h-5zM30 21h5v1h-5zM0 22h5v1h-5zM30 22h5v1h-5zM0 23h5v1h-5zM30 23h5v1h-5zM0 24h5v1h-5zM30 24h5v1h-5zM0 25h5v1h-5zM30 25h5v1h-5zM0 26h5v1h-5zM30 26h5v1h-5zM0 27h5v1h-5zM30 27h5v1h-5zM0 28h5v1h-5zM30 28h5v1h-5zM0 29h5v1h-5zM30 29h5v1h-5zM0 30h35v1h-35zM0 31h35v1h-35zM0 32h35v1h-35zM0 33h35v1h-35zM0 34h35v1h-35z"/><path transform="translate(334,418) scale(8)" fill="#ddd0a1" d="M5 5h25v1h-25zM5 6h25v1h-25zM5 7h25v1h-25zM5 8h25v1h-25zM5 9h25v1h-25zM5 10h25v1h-25zM5 11h25v1h-25zM5 12h25v1h-25zM5 13h25v1h-25zM5 14h25v1h-25zM5 15h25v1h-25zM5 16h25v1h-25zM5 17h25v1h-25zM5 18h25v1h-25zM5 19h25v1h-25zM5 20h25v1h-25zM5 21h25v1h-25zM5 22h25v1h-25zM5 23h25v1h-25zM5 24h25v1h-25zM5 25h25v1h-25zM5 26h25v1h-25zM5 27h25v1h-25zM5 28h25v1h-25zM5 29h25v1h-25z"/><path class="fine" d="M342 418v280M350 418v280M358 418v280M366 418v280M374 418v280M382 418v280M390 418v280M398 418v280M406 418v280M414 418v280M422 418v280M430 418v280M438 418v280M446 418v280M454 418v280M462 418v280M470 418v280M478 418v280M486 418v280M494 418v280M502 418v280M510 418v280M518 418v280M526 418v280M534 418v280M542 418v280M550 418v280M558 418v280M566 418v280M574 418v280M582 418v280M590 418v280M598 418v280M606 418v280M334 426h280M334 434h280M334 442h280M334 450h280M334 458h280M334 466h280M334 474h280M334 482h280M334 490h280M334 498h280M334 506h280M334 514h280M334 522h280M334 530h280M334 538h280M334 546h280M334 554h280M334 562h280M334 570h280M334 578h280M334 586h280M334 594h280M334 602h280M334 610h280M334 618h280M334 626h280M334 634h280M334 642h280M334 650h280M334 658h280M334 666h280M334 674h280M334 682h280M334 690h280"/><line x1="334" y1="418" x2="334" y2="698" class="grid"/><line x1="390" y1="418" x2="390" y2="698" class="grid"/><line x1="446" y1="418" x2="446" y2="698" class="grid"/><line x1="502" y1="418" x2="502" y2="698" class="grid"/><line x1="558" y1="418" x2="558" y2="698" class="grid"/><line x1="614" y1="418" x2="614" y2="698" class="grid"/><line x1="334" y1="418" x2="614" y2="418" class="grid"/><line x1="334" y1="474" x2="614" y2="474" class="grid"/><line x1="334" y1="530" x2="614" y2="530" class="grid"/><line x1="334" y1="586" x2="614" y2="586" class="grid"/><line x1="334" y1="642" x2="614" y2="642" class="grid"/><line x1="334" y1="698" x2="614" y2="698" class="grid"/><text x="656" y="400" class="cap">y = 6</text><rect x="656" y="418" width="280" height="280" fill="#fbfbfb" stroke="#bbb"/><path transform="translate(656,418) scale(8)" fill="#ffffff" d="M0 0h35v1h-35zM0 1h35v1h-35zM0 2h35v1h-35zM0 3h35v1h-35zM0 4h35v1h-35zM0 5h35v1h-35zM0 6h6v1h-6zM29 6h6v1h-6zM0 7h6v1h-6zM29 7h6v1h-6zM0 8h6v1h-6zM29 8h6v1h-6zM0 9h6v1h-6zM29 9h6v1h-6zM0 10h6v1h-6zM29 10h6v1h-6zM0 11h6v1h-6zM29 11h6v1h-6zM0 12h6v1h-6zM29 12h6v1h-6zM0 13h6v1h-6zM29 13h6v1h-6zM0 14h6v1h-6zM29 14h6v1h-6zM0 15h6v1h-6zM29 15h6v1h-6zM0 16h6v1h-6zM29 16h6v1h-6zM0 17h6v1h-6zM29 17h6v1h-6zM0 18h6v1h-6zM29 18h6v1h-6zM0 19h6v1h-6zM29 19h6v1h-6zM0 20h6v1h-6zM29 20h6v1h-6zM0 21h6v1h-6zM29 21h6v1h-6zM0 22h6v1h-6zM29 22h6v1h-6zM0 23h6v1h-6zM29 23h6v1h-6zM0 24h6v1h-6zM29 24h6v1h-6zM0 25h6v1h-6zM29 25h6v1h-6zM0 26h6v1h-6zM29 26h6v1h-6zM0 27h6v1h-6zM29 27h6v1h-6zM0 28h6v1h-6zM29 28h6v1h-6zM0 29h35v1h-35zM0 30h35v1h-35zM0 31h35v1h-35zM0 32h35v1h-35zM0 33h35v1h-35zM0 34h35v1h-35z"/><path transform="translate(656,418) scale(8)" fill="#d0c28c" d="M6 6h23v1h-23zM6 7h23v1h-23zM6 8h23v1h-23zM6 9h23v1h-23zM6 10h23v1h-23zM6 11h23v1h-23zM6 12h23v1h-23zM6 13h23v1h-23zM6 14h23v1h-23zM6 15h23v1h-23zM6 16h23v1h-23zM6 17h23v1h-23zM6 18h23v1h-23zM6 19h23v1h-23zM6 20h23v1h-23zM6 21h23v1h-23zM6 22h23v1h-23zM6 23h23v1h-23zM6 24h23v1h-23zM6 25h23v1h-23zM6 26h23v1h-23zM6 27h23v1h-23zM6 28h23v1h-23z"/><path class="fine" d="M664 418v280M672 418v280M680 418v280M688 418v280M696 418v280M704 418v280M712 418v280M720 418v280M728 418v280M736 418v280M744 418v280M752 418v280M760 418v280M768 418v280M776 418v280M784 418v280M792 418v280M800 418v280M808 418v280M816 418v280M824 418v280M832 418v280M840 418v280M848 418v280M856 418v280M864 418v280M872 418v280M880 418v280M888 418v280M896 418v280M904 418v280M912 418v280M920 418v280M928 418v280M656 426h280M656 434h280M656 442h280M656 450h280M656 458h280M656 466h280M656 474h280M656 482h280M656 490h280M656 498h280M656 506h280M656 514h280M656 522h280M656 530h280M656 538h280M656 546h280M656 554h280M656 562h280M656 570h280M656 578h280M656 586h280M656 594h280M656 602h280M656 610h280M656 618h280M656 626h280M656 634h280M656 642h280M656 650h280M656 658h280M656 666h280M656 674h280M656 682h280M656 690h280"/><line x1="656" y1="418" x2="656" y2="698" class="grid"/><line x1="712" y1="418" x2="712" y2="698" class="grid"/><line x1="768" y1="418" x2="768" y2="698" class="grid"/><line x1="824" y1="418" x2="824" y2="698" class="grid"/><line x1="880" y1="418" x2="880" y2="698" class="grid"/><line x1="936" y1="418" x2="936" y2="698" class="grid"/><line x1="656" y1="418" x2="936" y2="418" class="grid"/><line x1="656" y1="474" x2="936" y2="474" class="grid"/><line x1="656" y1="530" x2="936" y2="530" class="grid"/><line x1="656" y1="586" x2="936" y2="586" class="grid"/><line x1="656" y1="642" x2="936" y2="642" class="grid"/><line x1="656" y1="698" x2="936" y2="698" class="grid"/><text x="978" y="400" class="cap">y = 7</text><rect x="978" y="418" width="280" height="280" fill="#fbfbfb" stroke="#bbb"/><path transform="translate(978,418) scale(8)" fill="#ffffff" d="M0 0h35v1h-35zM0 1h35v1h-35zM0 2h35v1h-35zM0 3h35v1h-35zM0 4h35v1h-35zM0 5h35v1h-35zM0 6h35v1h-35zM0 7h7v1h-7zM28 7h7v1h-7zM0 8h7v1h-7zM28 8h7v1h-7zM0 9h7v1h-7zM28 9h7v1h-7zM0 10h7v1h-7zM28 10h7v1h-7zM0 11h7v1h-7zM28 11h7v1h-7zM0 12h7v1h-7zM28 12h7v1h-7zM0 13h7v1h-7zM28 13h7v1h-7zM0 14h7v1h-7zM28 14h7v1h-7zM0 15h7v1h-7zM28 15h7v1h-7zM0 16h7v1h-7zM28 16h7v1h-7zM0 17h7v1h-7zM28 17h7v1h-7zM0 18h7v1h-7zM28 18h7v1h-7zM0 19h7v1h-7zM28 19h7v1h-7zM0 20h7v1h-7zM28 20h7v1h-7zM0 21h7v1h-7zM28 21h7v1h-7zM0 22h7v1h-7zM28 22h7v1h-7zM0 23h7v1h-7zM28 23h7v1h-7zM0 24h7v1h-7zM28 24h7v1h-7zM0 25h7v1h-7zM28 25h7v1h-7zM0 26h7v1h-7zM28 26h7v1h-7zM0 27h7v1h-7zM28 27h7v1h-7zM0 28h35v1h-35zM0 29h35v1h-35zM0 30h35v1h-35zM0 31h35v1h-35zM0 32h35v1h-35zM0 33h35v1h-35zM0 34h35v1h-35z"/><path transform="translate(978,418) scale(8)" fill="#ddd0a1" d="M7 7h21v1h-21zM7 8h21v1h-21zM7 9h21v1h-21zM7 10h21v1h-21zM7 11h21v1h-21zM7 12h21v1h-21zM7 13h21v1h-21zM7 14h21v1h-21zM7 15h21v1h-21zM7 16h21v1h-21zM7 17h21v1h-21zM7 18h21v1h-21zM7 19h21v1h-21zM7 20h21v1h-21zM7 21h21v1h-21zM7 22h21v1h-21zM7 23h21v1h-21zM7 24h21v1h-21zM7 25h21v1h-21zM7 26h21v1h-21zM7 27h21v1h-21z"/><path class="fine" d="M986 418v280M994 418v280M1002 418v280M1010 418v280M1018 418v280M1026 418v280M1034 418v280M1042 418v280M1050 418v280M1058 418v280M1066 418v280M1074 418v280M1082 418v280M1090 418v280M1098 418v280M1106 418v280M1114 418v280M1122 418v280M1130 418v280M1138 418v280M1146 418v280M1154 418v280M1162 418v280M1170 418v280M1178 418v280M1186 418v280M1194 418v280M1202 418v280M1210 418v280M1218 418v280M1226 418v280M1234 418v280M1242 418v280M1250 418v280M978 426h280M978 434h280M978 442h280M978 450h280M978 458h280M978 466h280M978 474h280M978 482h280M978 490h280M978 498h280M978 506h280M978 514h280M978 522h280M978 530h280M978 538h280M978 546h280M978 554h280M978 562h280M978 570h280M978 578h280M978 586h280M978 594h280M978 602h280M978 610h280M978 618h280M978 626h280M978 634h280M978 642h280M978 650h280M978 658h280M978 666h280M978 674h280M978 682h280M978 690h280"/><line x1="978" y1="418" x2="978" y2="698" class="grid"/><line x1="1034" y1="418" x2="1034" y2="698" class="grid"/><line x1="1090" y1="418" x2="1090" y2="698" class="grid"/><line x1="1146" y1="418" x2="1146" y2="698" class="grid"/><line x1="1202" y1="418" x2="1202" y2="698" class="grid"/><line x1="1258" y1="418" x2="1258" y2="698" class="grid"/><line x1="978" y1="418" x2="1258" y2="418" class="grid"/><line x1="978" y1="474" x2="1258" y2="474" class="grid"/><line x1="978" y1="530" x2="1258" y2="530" class="grid"/><line x1="978" y1="586" x2="1258" y2="586" class="grid"/><line x1="978" y1="642" x2="1258" y2="642" class="grid"/><line x1="978" y1="698" x2="1258" y2="698" class="grid"/><text x="12" y="740" class="cap">y = 8</text><rect x="12" y="758" width="280" height="280" fill="#fbfbfb" stroke="#bbb"/><path transform="translate(12,758) scale(8)" fill="#ffffff" d="M0 0h35v1h-35zM0 1h35v1h-35zM0 2h35v1h-35zM0 3h35v1h-35zM0 4h35v1h-35zM0 5h35v1h-35zM0 6h35v1h-35zM0 7h35v1h-35zM0 8h8v1h-8zM27 8h8v1h-8zM0 9h8v1h-8zM27 9h8v1h-8zM0 10h8v1h-8zM27 10h8v1h-8zM0 11h8v1h-8zM27 11h8v1h-8zM0 12h8v1h-8zM27 12h8v1h-8zM0 13h8v1h-8zM27 13h8v1h-8zM0 14h8v1h-8zM27 14h8v1h-8zM0 15h8v1h-8zM27 15h8v1h-8zM0 16h8v1h-8zM27 16h8v1h-8zM0 17h8v1h-8zM27 17h8v1h-8zM0 18h8v1h-8zM27 18h8v1h-8zM0 19h8v1h-8zM27 19h8v1h-8zM0 20h8v1h-8zM27 20h8v1h-8zM0 21h8v1h-8zM27 21h8v1h-8zM0 22h8v1h-8zM27 22h8v1h-8zM0 23h8v1h-8zM27 23h8v1h-8zM0 24h8v1h-8zM27 24h8v1h-8zM0 25h8v1h-8zM27 25h8v1h-8zM0 26h8v1h-8zM27 26h8v1h-8zM0 27h35v1h-35zM0 28h35v1h-35zM0 29h35v1h-35zM0 30h35v1h-35zM0 31h35v1h-35zM0 32h35v1h-35zM0 33h35v1h-35zM0 34h35v1h-35z"/><path transform="translate(12,758) scale(8)" fill="#ddd0a1" d="M8 8h19v1h-19zM8 9h19v1h-19zM8 10h19v1h-19zM8 11h19v1h-19zM8 12h19v1h-19zM8 13h19v1h-19zM8 14h19v1h-19zM8 15h19v1h-19zM8 16h19v1h-19zM8 17h19v1h-19zM8 18h19v1h-19zM8 19h19v1h-19zM8 20h19v1h-19zM8 21h19v1h-19zM8 22h19v1h-19zM8 23h19v1h-19zM8 24h19v1h-19zM8 25h19v1h-19zM8 26h19v1h-19z"/><path class="fine" d="M20 758v280M28 758v280M36 758v280M44 758v280M52 758v280M60 758v280M68 758v280M76 758v280M84 758v280M92 758v280M100 758v280M108 758v280M116 758v280M124 758v280M132 758v280M140 758v280M148 758v280M156 758v280M164 758v280M172 758v280M180 758v280M188 758v280M196 758v280M204 758v280M212 758v280M220 758v280M228 758v280M236 758v280M244 758v280M252 758v280M260 758v280M268 758v280M276 758v280M284 758v280M12 766h280M12 774h280M12 782h280M12 790h280M12 798h280M12 806h280M12 814h280M12 822h280M12 830h280M12 838h280M12 846h280M12 854h280M12 862h280M12 870h280M12 878h280M12 886h280M12 894h280M12 902h280M12 910h280M12 918h280M12 926h280M12 934h280M12 942h280M12 950h280M12 958h280M12 966h280M12 974h280M12 982h280M12 990h280M12 998h280M12 1006h280M12 1014h280M12 1022h280M12 1030h280"/><line x1="12" y1="758" x2="12" y2="1038" class="grid"/><line x1="68" y1="758" x2="68" y2="1038" class="grid"/><line x1="124" y1="758" x2="124" y2="1038" class="grid"/><line x1="180" y1="758" x2="180" y2="1038" class="grid"/><line x1="236" y1="758" x2="236" y2="1038" class="grid"/><line x1="292" y1="758" x2="292" y2="1038" class="grid"/><line x1="12" y1="758" x2="292" y2="758" class="grid"/><line x1="12" y1="814" x2="292" y2="814" class="grid"/><line x1="12" y1="870" x2="292" y2="870" class="grid"/><line x1="12" y1="926" x2="292" y2="926" class="grid"/><line x1="12" y1="982" x2="292" y2="982" class="grid"/><line x1="12" y1="1038" x2="292" y2="1038" class="grid"/><text x="334" y="740" class="cap">y = 9</text><rect x="334" y="758" width="280" height="280" fill="#fbfbfb" stroke="#bbb"/><path transform="translate(334,758) scale(8)" fill="#ffffff" d="M0 0h35v1h-35zM0 1h35v1h-35zM0 2h35v1h-35zM0 3h35v1h-35zM0 4h35v1h-35zM0 5h35v1h-35zM0 6h35v1h-35zM0 7h35v1h-35zM0 8h35v1h-35zM0 9h9v1h-9zM26 9h9v1h-9zM0 10h9v1h-9zM26 10h9v1h-9zM0 11h9v1h-9zM26 11h9v1h-9zM0 12h9v1h-9zM26 12h9v1h-9zM0 13h9v1h-9zM26 13h9v1h-9zM0 14h9v1h-9zM26 14h9v1h-9zM0 15h9v1h-9zM26 15h9v1h-9zM0 16h9v1h-9zM26 16h9v1h-9zM0 17h9v1h-9zM26 17h9v1h-9zM0 18h9v1h-9zM26 18h9v1h-9zM0 19h9v1h-9zM26 19h9v1h-9zM0 20h9v1h-9zM26 20h9v1h-9zM0 21h9v1h-9zM26 21h9v1h-9zM0 22h9v1h-9zM26 22h9v1h-9zM0 23h9v1h-9zM26 23h9v1h-9zM0 24h9v1h-9zM26 24h9v1h-9zM0 25h9v1h-9zM26 25h9v1h-9zM0 26h35v1h-35zM0 27h35v1h-35zM0 28h35v1h-35zM0 29h35v1h-35zM0 30h35v1h-35zM0 31h35v1h-35zM0 32h35v1h-35zM0 33h35v1h-35zM0 34h35v1h-35z"/><path transform="translate(334,758) scale(8)" fill="#ddd0a1" d="M9 9h17v1h-17zM9 10h17v1h-17zM9 11h17v1h-17zM9 12h17v1h-17zM9 13h17v1h-17zM9 14h17v1h-17zM9 15h17v1h-17zM9 16h17v1h-17zM9 17h17v1h-17zM9 18h17v1h-17zM9 19h17v1h-17zM9 20h17v1h-17zM9 21h17v1h-17zM9 22h17v1h-17zM9 23h17v1h-17zM9 24h17v1h-17zM9 25h17v1h-17z"/><path class="fine" d="M342 758v280M350 758v280M358 758v280M366 758v280M374 758v280M382 758v280M390 758v280M398 758v280M406 758v280M414 758v280M422 758v280M430 758v280M438 758v280M446 758v280M454 758v280M462 758v280M470 758v280M478 758v280M486 758v280M494 758v280M502 758v280M510 758v280M518 758v280M526 758v280M534 758v280M542 758v280M550 758v280M558 758v280M566 758v280M574 758v280M582 758v280M590 758v280M598 758v280M606 758v280M334 766h280M334 774h280M334 782h280M334 790h280M334 798h280M334 806h280M334 814h280M334 822h280M334 830h280M334 838h280M334 846h280M334 854h280M334 862h280M334 870h280M334 878h280M334 886h280M334 894h280M334 902h280M334 910h280M334 918h280M334 926h280M334 934h280M334 942h280M334 950h280M334 958h280M334 966h280M334 974h280M334 982h280M334 990h280M334 998h280M334 1006h280M334 1014h280M334 1022h280M334 1030h280"/><line x1="334" y1="758" x2="334" y2="1038" class="grid"/><line x1="390" y1="758" x2="390" y2="1038" class="grid"/><line x1="446" y1="758" x2="446" y2="1038" class="grid"/><line x1="502" y1="758" x2="502" y2="1038" class="grid"/><line x1="558" y1="758" x2="558" y2="1038" class="grid"/><line x1="614" y1="758" x2="614" y2="1038" class="grid"/><line x1="334" y1="758" x2="614" y2="758" class="grid"/><line x1="334" y1="814" x2="614" y2="814" class="grid"/><line x1="334" y1="870" x2="614" y2="870" class="grid"/><line x1="334" y1="926" x2="614" y2="926" class="grid"/><line x1="334" y1="982" x2="614" y2="982" class="grid"/><line x1="334" y1="1038" x2="614" y2="1038" class="grid"/><text x="656" y="740" class="cap">y = 10</text><rect x="656" y="758" width="280" height="280" fill="#fbfbfb" stroke="#bbb"/><path transform="translate(656,758) scale(8)" fill="#ffffff" d="M0 0h35v1h-35zM0 1h35v1h-35zM0 2h35v1h-35zM0 3h35v1h-35zM0 4h35v1h-35zM0 5h35v1h-35zM0 6h35v1h-35zM0 7h35v1h-35zM0 8h35v1h-35zM0 9h35v1h-35zM0 10h10v1h-10zM25 10h10v1h-10zM0 11h10v1h-10zM25 11h10v1h-10zM0 12h10v1h-10zM25 12h10v1h-10zM0 13h10v1h-10zM25 13h10v1h-10zM0 14h10v1h-10zM25 14h10v1h-10zM0 15h10v1h-10zM25 15h10v1h-10zM0 16h10v1h-10zM25 16h10v1h-10zM0 17h10v1h-10zM25 17h10v1h-10zM0 18h10v1h-10zM25 18h10v1h-10zM0 19h10v1h-10zM25 19h10v1h-10zM0 20h10v1h-10zM25 20h10v1h-10zM0 21h10v1h-10zM25 21h10v1h-10zM0 22h10v1h-10zM25 22h10v1h-10zM0 23h10v1h-10zM25 23h10v1h-10zM0 24h10v1h-10zM25 24h10v1h-10zM0 25h35v1h-35zM0 26h35v1h-35zM0 27h35v1h-35zM0 28h35v1h-35zM0 29h35v1h-35zM0 30h35v1h-35zM0 31h35v1h-35zM0 32h35v1h-35zM0 33h35v1h-35zM0 34h35v1h-35z"/><path transform="translate(656,758) scale(8)" fill="#ddd0a1" d="M10 10h15v1h-15zM10 11h15v1h-15zM10 12h15v1h-15zM10 13h15v1h-15zM10 14h15v1h-15zM10 15h15v1h-15zM10 16h15v1h-15zM10 17h15v1h-15zM10 18h15v1h-15zM10 19h15v1h-15zM10 20h15v1h-15zM10 21h15v1h-15zM10 22h15v1h-15zM10 23h15v1h-15zM10 24h15v1h-15z"/><path class="fine" d="M664 758v280M672 758v280M680 758v280M688 758v280M696 758v280M704 758v280M712 758v280M720 758v280M728 758v280M736 758v280M744 758v280M752 758v280M760 758v280M768 758v280M776 758v280M784 758v280M792 758v280M800 758v280M808 758v280M816 758v280M824 758v280M832 758v280M840 758v280M848 758v280M856 758v280M864 758v280M872 758v280M880 758v280M888 758v280M896 758v280M904 758v280M912 758v280M920 758v280M928 758v280M656 766h280M656 774h280M656 782h280M656 790h280M656 798h280M656 806h280M656 814h280M656 822h280M656 830h280M656 838h280M656 846h280M656 854h280M656 862h280M656 870h280M656 878h280M656 886h280M656 894h280M656 902h280M656 910h280M656 918h280M656 926h280M656 934h280M656 942h280M656 950h280M656 958h280M656 966h280M656 974h280M656 982h280M656 990h280M656 998h280M656 1006h280M656 1014h280M656 1022h280M656 1030h280"/><line x1="656" y1="758" x2="656" y2="1038" class="grid"/><line x1="712" y1="758" x2="712" y2="1038" class="grid"/><line x1="768" y1="758" x2="768" y2="1038" class="grid"/><line x1="824" y1="758" x2="824" y2="1038" class="grid"/><line x1="880" y1="758" x2="880" y2="1038" class="grid"/><line x1="936" y1="758" x2="936" y2="1038" class="grid"/><line x1="656" y1="758" x2="936" y2="758" class="grid"/><line x1="656" y1="814" x2="936" y2="814" class="grid"/><line x1="656" y1="870" x2="936" y2="870" class="grid"/><line x1="656" y1="926" x2="936" y2="926" class="grid"/><line x1="656" y1="982" x2="936" y2="982" class="grid"/><line x1="656" y1="1038" x2="936" y2="1038" class="grid"/><text x="978" y="740" class="cap">y = 11</text><rect x="978" y="758" width="280" height="280" fill="#fbfbfb" stroke="#bbb"/><path transform="translate(978,758) scale(8)" fill="#ffffff" d="M0 0h35v1h-35zM0 1h35v1h-35zM0 2h35v1h-35zM0 3h35v1h-35zM0 4h35v1h-35zM0 5h35v1h-35zM0 6h35v1h-35zM0 7h35v1h-35zM0 8h35v1h-35zM0 9h35v1h-35zM0 10h35v1h-35zM0 11h11v1h-11zM24 11h11v1h-11zM0 12h11v1h-11zM24 12h11v1h-11zM0 13h11v1h-11zM24 13h11v1h-11zM0 14h11v1h-11zM24 14h11v1h-11zM0 15h11v1h-11zM24 15h11v1h-11zM0 16h11v1h-11zM24 16h11v1h-11zM0 17h11v1h-11zM24 17h11v1h-11zM0 18h11v1h-11zM24 18h11v1h-11zM0 19h11v1h-11zM24 19h11v1h-11zM0 20h11v1h-11zM24 20h11v1h-11zM0 21h11v1h-11zM24 21h11v1h-11zM0 22h11v1h-11zM24 22h11v1h-11zM0 23h11v1h-11zM24 23h11v1h-11zM0 24h35v1h-35zM0 25h35v1h-35zM0 26h35v1h-35zM0 27h35v1h-35zM0 28h35v1h-35zM0 29h35v1h-35zM0 30h35v1h-35zM0 31h35v1h-35zM0 32h35v1h-35zM0 33h35v1h-35zM0 34h35v1h-35z"/><path transform="translate(978,758) scale(8)" fill="#ddd0a1" d="M11 11h13v1h-13zM11 12h13v1h-13zM11 13h13v1h-13zM11 14h13v1h-13zM11 15h13v1h-13zM11 16h13v1h-13zM11 17h13v1h-13zM11 18h13v1h-13zM11 19h13v1h-13zM11 20h13v1h-13zM11 21h13v1h-13zM11 22h13v1h-13zM11 23h13v1h-13z"/><path class="fine" d="M986 758v280M994 758v280M1002 758v280M1010 758v280M1018 758v280M1026 758v280M1034 758v280M1042 758v280M1050 758v280M1058 758v280M1066 758v280M1074 758v280M1082 758v280M1090 758v280M1098 758v280M1106 758v280M1114 758v280M1122 758v280M1130 758v280M1138 758v280M1146 758v280M1154 758v280M1162 758v280M1170 758v280M1178 758v280M1186 758v280M1194 758v280M1202 758v280M1210 758v280M1218 758v280M1226 758v280M1234 758v280M1242 758v280M1250 758v280M978 766h280M978 774h280M978 782h280M978 790h280M978 798h280M978 806h280M978 814h280M978 822h280M978 830h280M978 838h280M978 846h280M978 854h280M978 862h280M978 870h280M978 878h280M978 886h280M978 894h280M978 902h280M978 910h280M978 918h280M978 926h280M978 934h280M978 942h280M978 950h280M978 958h280M978 966h280M978 974h280M978 982h280M978 990h280M978 998h280M978 1006h280M978 1014h280M978 1022h280M978 1030h280"/><line x1="978" y1="758" x2="978" y2="1038" class="grid"/><line x1="1034" y1="758" x2="1034" y2="1038" class="grid"/><line x1="1090" y1="758" x2="1090" y2="1038" class="grid"/><line x1="1146" y1="758" x2="1146" y2="1038" class="grid"/><line x1="1202" y1="758" x2="1202" y2="1038" class="grid"/><line x1="1258" y1="758" x2="1258" y2="1038" class="grid"/><line x1="978" y1="758" x2="1258" y2="758" class="grid"/><line x1="978" y1="814" x2="1258" y2="814" class="grid"/><line x1="978" y1="870" x2="1258" y2="870" class="grid"/><line x1="978" y1="926" x2="1258" y2="926" class="grid"/><line x1="978" y1="982" x2="1258" y2="982" class="grid"/><line x1="978" y1="1038" x2="1258" y2="1038" class="grid"/><text x="12" y="1080" class="cap">y = 12</text><rect x="12" y="1098" width="280" height="280" fill="#fbfbfb" stroke="#bbb"/><path transform="translate(12,1098) scale(8)" fill="#ffffff" d="M0 0h35v1h-35zM0 1h35v1h-35zM0 2h35v1h-35zM0 3h35v1h-35zM0 4h35v1h-35zM0 5h35v1h-35zM0 6h35v1h-35zM0 7h35v1h-35zM0 8h35v1h-35zM0 9h35v1h-35zM0 10h35v1h-35zM0 11h35v1h-35zM0 12h12v1h-12zM23 12h12v1h-12zM0 13h12v1h-12zM23 13h12v1h-12zM0 14h12v1h-12zM23 14h12v1h-12zM0 15h12v1h-12zM23 15h12v1h-12zM0 16h12v1h-12zM23 16h12v1h-12zM0 17h12v1h-12zM23 17h12v1h-12zM0 18h12v1h-12zM23 18h12v1h-12zM0 19h12v1h-12zM23 19h12v1h-12zM0 20h12v1h-12zM23 20h12v1h-12zM0 21h12v1h-12zM23 21h12v1h-12zM0 22h12v1h-12zM23 22h12v1h-12zM0 23h35v1h-35zM0 24h35v1h-35zM0 25h35v1h-35zM0 26h35v1h-35zM0 27h35v1h-35zM0 28h35v1h-35zM0 29h35v1h-35zM0 30h35v1h-35zM0 31h35v1h-35zM0 32h35v1h-35zM0 33h35v1h-35zM0 34h35v1h-35z"/><path transform="translate(12,1098) scale(8)" fill="#ddd0a1" d="M12 12h11v1h-11zM12 13h11v1h-11zM12 14h11v1h-11zM12 15h11v1h-11zM12 16h11v1h-11zM12 17h11v1h-11zM12 18h11v1h-11zM12 19h11v1h-11zM12 20h11v1h-11zM12 21h11v1h-11zM12 22h11v1h-11z"/><path class="fine" d="M20 1098v280M28 1098v280M36 1098v280M44 1098v280M52 1098v280M60 1098v280M68 1098v280M76 1098v280M84 1098v280M92 1098v280M100 1098v280M108 1098v280M116 1098v280M124 1098v280M132 1098v280M140 1098v280M148 1098v280M156 1098v280M164 1098v280M172 1098v280M180 1098v280M188 1098v280M196 1098v280M204 1098v280M212 1098v280M220 1098v280M228 1098v280M236 1098v280M244 1098v280M252 1098v280M260 1098v280M268 1098v280M276 1098v280M284 1098v280M12 1106h280M12 1114h280M12 1122h280M12 1130h280M12 1138h280M12 1146h280M12 1154h280M12 1162h280M12 1170h280M12 1178h280M12 1186h280M12 1194h280M12 1202h280M12 1210h280M12 1218h280M12 1226h280M12 1234h280M12 1242h280M12 1250h280M12 1258h280M12 1266h280M12 1274h280M12 1282h280M12 1290h280M12 1298h280M12 1306h280M12 1314h280M12 1322h280M12 1330h280M12 1338h280M12 1346h280M12 1354h280M12 1362h280M12 1370h280"/><line x1="12" y1="1098" x2="12" y2="1378" class="grid"/><line x1="68" y1="1098" x2="68" y2="1378" class="grid"/><line x1="124" y1="1098" x2="124" y2="1378" class="grid"/><line x1="180" y1="1098" x2="180" y2="1378" class="grid"/><line x1="236" y1="1098" x2="236" y2="1378" class="grid"/><line x1="292" y1="1098" x2="292" y2="1378" class="grid"/><line x1="12" y1="1098" x2="292" y2="1098" class="grid"/><line x1="12" y1="1154" x2="292" y2="1154" class="grid"/><line x1="12" y1="1210" x2="292" y2="1210" class="grid"/><line x1="12" y1="1266" x2="292" y2="1266" class="grid"/><line x1="12" y1="1322" x2="292" y2="1322" class="grid"/><line x1="12" y1="1378" x2="292" y2="1378" class="grid"/><text x="334" y="1080" class="cap">y = 13</text><rect x="334" y="1098" width="280" height="280" fill="#fbfbfb" stroke="#bbb"/><path transform="translate(334,1098) scale(8)" fill="#ffffff" d="M0 0h35v1h-35zM0 1h35v1h-35zM0 2h35v1h-35zM0 3h35v1h-35zM0 4h35v1h-35zM0 5h35v1h-35zM0 6h35v1h-35zM0 7h35v1h-35zM0 8h35v1h-35zM0 9h35v1h-35zM0 10h35v1h-35zM0 11h35v1h-35zM0 12h35v1h-35zM0 13h13v1h-13zM22 13h13v1h-13zM0 14h13v1h-13zM22 14h13v1h-13zM0 15h13v1h-13zM22 15h13v1h-13zM0 16h13v1h-13zM22 16h13v1h-13zM0 17h13v1h-13zM22 17h13v1h-13zM0 18h13v1h-13zM22 18h13v1h-13zM0 19h13v1h-13zM22 19h13v1h-13zM0 20h13v1h-13zM22 20h13v1h-13zM0 21h13v1h-13zM22 21h13v1h-13zM0 22h35v1h-35zM0 23h35v1h-35zM0 24h35v1h-35zM0 25h35v1h-35zM0 26h35v1h-35zM0 27h35v1h-35zM0 28h35v1h-35zM0 29h35v1h-35zM0 30h35v1h-35zM0 31h35v1h-35zM0 32h35v1h-35zM0 33h35v1h-35zM0 34h35v1h-35z"/><path transform="translate(334,1098) scale(8)" fill="#d0c28c" d="M13 13h9v1h-9zM13 14h9v1h-9zM13 15h9v1h-9zM13 16h9v1h-9zM13 17h9v1h-9zM13 18h9v1h-9zM13 19h9v1h-9zM13 20h9v1h-9zM13 21h9v1h-9z"/><path class="fine" d="M342 1098v280M350 1098v280M358 1098v280M366 1098v280M374 1098v280M382 1098v280M390 1098v280M398 1098v280M406 1098v280M414 1098v280M422 1098v280M430 1098v280M438 1098v280M446 1098v280M454 1098v280M462 1098v280M470 1098v280M478 1098v280M486 1098v280M494 1098v280M502 1098v280M510 1098v280M518 1098v280M526 1098v280M534 1098v280M542 1098v280M550 1098v280M558 1098v280M566 1098v280M574 1098v280M582 1098v280M590 1098v280M598 1098v280M606 1098v280M334 1106h280M334 1114h280M334 1122h280M334 1130h280M334 1138h280M334 1146h280M334 1154h280M334 1162h280M334 1170h280M334 1178h280M334 1186h280M334 1194h280M334 1202h280M334 1210h280M334 1218h280M334 1226h280M334 1234h280M334 1242h280M334 1250h280M334 1258h280M334 1266h280M334 1274h280M334 1282h280M334 1290h280M334 1298h280M334 1306h280M334 1314h280M334 1322h280M334 1330h280M334 1338h280M334 1346h280M334 1354h280M334 1362h280M334 1370h280"/><line x1="334" y1="1098" x2="334" y2="1378" class="grid"/><line x1="390" y1="1098" x2="390" y2="1378" class="grid"/><line x1="446" y1="1098" x2="446" y2="1378" class="grid"/><line x1="502" y1="1098" x2="502" y2="1378" class="grid"/><line x1="558" y1="1098" x2="558" y2="1378" class="grid"/><line x1="614" y1="1098" x2="614" y2="1378" class="grid"/><line x1="334" y1="1098" x2="614" y2="1098" class="grid"/><line x1="334" y1="1154" x2="614" y2="1154" class="grid"/><line x1="334" y1="1210" x2="614" y2="1210" class="grid"/><line x1="334" y1="1266" x2="614" y2="1266" class="grid"/><line x1="334" y1="1322" x2="614" y2="1322" class="grid"/><line x1="334" y1="1378" x2="614" y2="1378" class="grid"/><text x="656" y="1080" class="cap">y = 14</text><rect x="656" y="1098" width="280" height="280" fill="#fbfbfb" stroke="#bbb"/><path transform="translate(656,1098) scale(8)" fill="#ffffff" d="M0 0h35v1h-35zM0 1h35v1h-35zM0 2h35v1h-35zM0 3h35v1h-35zM0 4h35v1h-35zM0 5h35v1h-35zM0 6h35v1h-35zM0 7h35v1h-35zM0 8h35v1h-35zM0 9h35v1h-35zM0 10h35v1h-35zM0 11h35v1h-35zM0 12h35v1h-35zM0 13h35v1h-35zM0 14h14v1h-14zM21 14h14v1h-14zM0 15h14v1h-14zM21 15h14v1h-14zM0 16h14v1h-14zM21 16h14v1h-14zM0 17h14v1h-14zM21 17h14v1h-14zM0 18h14v1h-14zM21 18h14v1h-14zM0 19h14v1h-14zM21 19h14v1h-14zM0 20h14v1h-14zM21 20h14v1h-14zM0 21h35v1h-35zM0 22h35v1h-35zM0 23h35v1h-35zM0 24h35v1h-35zM0 25h35v1h-35zM0 26h35v1h-35zM0 27h35v1h-35zM0 28h35v1h-35zM0 29h35v1h-35zM0 30h35v1h-35zM0 31h35v1h-35zM0 32h35v1h-35zM0 33h35v1h-35zM0 34h35v1h-35z"/><path transform="translate(656,1098) scale(8)" fill="#ddd0a1" d="M14 14h7v1h-7zM14 15h7v1h-7zM14 16h7v1h-7zM14 17h7v1h-7zM14 18h7v1h-7zM14 19h7v1h-7zM14 20h7v1h-7z"/><path class="fine" d="M664 1098v280M672 1098v280M680 1098v280M688 1098v280M696 1098v280M704 1098v280M712 1098v280M720 1098v280M728 1098v280M736 1098v280M744 1098v280M752 1098v280M760 1098v280M768 1098v280M776 1098v280M784 1098v280M792 1098v280M800 1098v280M808 1098v280M816 1098v280M824 1098v280M832 1098v280M840 1098v280M848 1098v280M856 1098v280M864 1098v280M872 1098v280M880 1098v280M888 1098v280M896 1098v280M904 1098v280M912 1098v280M920 1098v280M928 1098v280M656 1106h280M656 1114h280M656 1122h280M656 1130h280M656 1138h280M656 1146h280M656 1154h280M656 1162h280M656 1170h280M656 1178h280M656 1186h280M656 1194h280M656 1202h280M656 1210h280M656 1218h280M656 1226h280M656 1234h280M656 1242h280M656 1250h280M656 1258h280M656 1266h280M656 1274h280M656 1282h280M656 1290h280M656 1298h280M656 1306h280M656 1314h280M656 1322h280M656 1330h280M656 1338h280M656 1346h280M656 1354h280M656 1362h280M656 1370h280"/><line x1="656" y1="1098" x2="656" y2="1378" class="grid"/><line x1="712" y1="1098" x2="712" y2="1378" class="grid"/><line x1="768" y1="1098" x2="768" y2="1378" class="grid"/><line x1="824" y1="1098" x2="824" y2="1378" class="grid"/><line x1="880" y1="1098" x2="880" y2="1378" class="grid"/><line x1="936" y1="1098" x2="936" y2="1378" class="grid"/><line x1="656" y1="1098" x2="936" y2="1098" class="grid"/><line x1="656" y1="1154" x2="936" y2="1154" class="grid"/><line x1="656" y1="1210" x2="936" y2="1210" class="grid"/><line x1="656" y1="1266" x2="936" y2="1266" class="grid"/><line x1="656" y1="1322" x2="936" y2="1322" class="grid"/><line x1="656" y1="1378" x2="936" y2="1378" class="grid"/><text x="978" y="1080" class="cap">y = 15</text><rect x="978" y="1098" width="280" height="280" fill="#fbfbfb" stroke="#bbb"/><path transform="translate(978,1098) scale(8)" fill="#ffffff" d="M0 0h35v1h-35zM0 1h35v1h-35zM0 2h35v1h-35zM0 3h35v1h-35zM0 4h35v1h-35zM0 5h35v1h-35zM0 6h35v1h-35zM0 7h35v1h-35zM0 8h35v1h-35zM0 9h35v1h-35zM0 10h35v1h-35zM0 11h35v1h-35zM0 12h35v1h-35zM0 13h35v1h-35zM0 14h35v1h-35zM0 15h15v1h-15zM20 15h15v1h-15zM0 16h15v1h-15zM20 16h15v1h-15zM0 17h15v1h-15zM20 17h15v1h-15zM0 18h15v1h-15zM20 18h15v1h-15zM0 19h15v1h-15zM20 19h15v1h-15zM0 20h35v1h-35zM0 21h35v1h-35zM0 22h35v1h-35zM0 23h35v1h-35zM0 24h35v1h-35zM0 25h35v1h-35zM0 26h35v1h-35zM0 27h35v1h-35zM0 28h35v1h-35zM0 29h35v1h-35zM0 30h35v1h-35zM0 31h35v1h-35zM0 32h35v1h-35zM0 33h35v1h-35zM0 34h35v1h-35z"/><path transform="translate(978,1098) scale(8)" fill="#ddd0a1" d="M15 15h5v1h-5zM15 16h5v1h-5zM15 17h5v1h-5zM15 18h5v1h-5zM15 19h5v1h-5z"/><path class="fine" d="M986 1098v280M994 1098v280M1002 1098v280M1010 1098v280M1018 1098v280M1026 1098v280M1034 1098v280M1042 1098v280M1050 1098v280M1058 1098v280M1066 1098v280M1074 1098v280M1082 1098v280M1090 1098v280M1098 1098v280M1106 1098v280M1114 1098v280M1122 1098v280M1130 1098v280M1138 1098v280M1146 1098v280M1154 1098v280M1162 1098v280M1170 1098v280M1178 1098v280M1186 1098v280M1194 1098v280M1202 1098v280M1210 1098v280M1218 1098v280M1226 1098v280M1234 1098v280M1242 1098v280M1250 1098v280M978 1106h280M978 1114h280M978 1122h280M978 1130h280M978 1138h280M978 1146h280M978 1154h280M978 1162h280M978 1170h280M978 1178h280M978 1186h280M978 1194h280M978 1202h280M978 1210h280M978 1218h280M978 1226h280M978 1234h280M978 1242h280M978 1250h280M978 1258h280M978 1266h280M978 1274h280M978 1282h280M978 1290h280M978 1298h280M978 1306h280M978 1314h280M978 1322h280M978 1330h280M978 1338h280M978 1346h280M978 1354h280M978 1362h280M978 1370h280"/><line x1="978" y1="1098" x2="978" y2="1378" class="grid"/><line x1="1034" y1="1098" x2="1034" y2="1378" class="grid"/><line x1="1090" y1="1098" x2="1090" y2="1378" class="grid"/><line x1="1146" y1="1098" x2="1146" y2="1378" class="grid"/><line x1="1202" y1="1098" x2="1202" y2="1378" class="grid"/><line x1="1258" y1="1098" x2="1258" y2="1378" class="grid"/><line x1="978" y1="1098" x2="1258" y2="1098" class="grid"/><line x1="978" y1="1154" x2="1258" y2="1154" class="grid"/><line x1="978" y1="1210" x2="1258" y2="1210" class="grid"/><line x1="978" y1="1266" x2="1258" y2="1266" class="grid"/><line x1="978" y1="1322" x2="1258" y2="1322" class="grid"/><line x1="978" y1="1378" x2="1258" y2="1378" class="grid"/><text x="12" y="1420" class="cap">y = 16</text><rect x="12" y="1438" width="280" height="280" fill="#fbfbfb" stroke="#bbb"/><path transform="translate(12,1438) scale(8)" fill="#ffffff" d="M0 0h35v1h-35zM0 1h35v1h-35zM0 2h35v1h-35zM0 3h35v1h-35zM0 4h35v1h-35zM0 5h35v1h-35zM0 6h35v1h-35zM0 7h35v1h-35zM0 8h35v1h-35zM0 9h35v1h-35zM0 10h35v1h-35zM0 11h35v1h-35zM0 12h35v1h-35zM0 13h35v1h-35zM0 14h35v1h-35zM0 15h35v1h-35zM0 16h16v1h-16zM19 16h16v1h-16zM0 17h16v1h-16zM19 17h16v1h-16zM0 18h16v1h-16zM19 18h16v1h-16zM0 19h35v1h-35zM0 20h35v1h-35zM0 21h35v1h-35zM0 22h35v1h-35zM0 23h35v1h-35zM0 24h35v1h-35zM0 25h35v1h-35zM0 26h35v1h-35zM0 27h35v1h-35zM0 28h35v1h-35zM0 29h35v1h-35zM0 30h35v1h-35zM0 31h35v1h-35zM0 32h35v1h-35zM0 33h35v1h-35zM0 34h35v1h-35z"/><path transform="translate(12,1438) scale(8)" fill="#ddd0a1" d="M16 16h3v1h-3zM16 17h3v1h-3zM16 18h3v1h-3z"/><path class="fine" d="M20 1438v280M28 1438v280M36 1438v280M44 1438v280M52 1438v280M60 1438v280M68 1438v280M76 1438v280M84 1438v280M92 1438v280M100 1438v280M108 1438v280M116 1438v280M124 1438v280M132 1438v280M140 1438v280M148 1438v280M156 1438v280M164 1438v280M172 1438v280M180 1438v280M188 1438v280M196 1438v280M204 1438v280M212 1438v280M220 1438v280M228 1438v280M236 1438v280M244 1438v280M252 1438v280M260 1438v280M268 1438v280M276 1438v280M284 1438v280M12 1446h280M12 1454h280M12 1462h280M12 1470h280M12 1478h280M12 1486h280M12 1494h280M12 1502h280M12 1510h280M12 1518h280M12 1526h280M12 1534h280M12 1542h280M12 1550h280M12 1558h280M12 1566h280M12 1574h280M12 1582h280M12 1590h280M12 1598h280M12 1606h280M12 1614h280M12 1622h280M12 1630h280M12 1638h280M12 1646h280M12 1654h280M12 1662h280M12 1670h280M12 1678h280M12 1686h280M12 1694h280M12 1702h280M12 1710h280"/><line x1="12" y1="1438" x2="12" y2="1718" class="grid"/><line x1="68" y1="1438" x2="68" y2="1718" class="grid"/><line x1="124" y1="1438" x2="124" y2="1718" class="grid"/><line x1="180" y1="1438" x2="180" y2="1718" class="grid"/><line x1="236" y1="1438" x2="236" y2="1718" class="grid"/><line x1="292" y1="1438" x2="292" y2="1718" class="grid"/><line x1="12" y1="1438" x2="292" y2="1438" class="grid"/><line x1="12" y1="1494" x2="292" y2="1494" class="grid"/><line x1="12" y1="1550" x2="292" y2="1550" class="grid"/><line x1="12" y1="1606" x2="292" y2="1606" class="grid"/><line x1="12" y1="1662" x2="292" y2="1662" class="grid"/><line x1="12" y1="1718" x2="292" y2="1718" class="grid"/><text x="334" y="1420" class="cap">y = 17</text><rect x="334" y="1438" width="280" height="280" fill="#fbfbfb" stroke="#bbb"/><path transform="translate(334,1438) scale(8)" fill="#ffffff" d="M0 0h35v1h-35zM0 1h35v1h-35zM0 2h35v1h-35zM0 3h35v1h-35zM0 4h35v1h-35zM0 5h35v1h-35zM0 6h35v1h-35zM0 7h35v1h-35zM0 8h35v1h-35zM0 9h35v1h-35zM0 10h35v1h-35zM0 11h35v1h-35zM0 12h35v1h-35zM0 13h35v1h-35zM0 14h35v1h-35zM0 15h35v1h-35zM0 16h35v1h-35zM0 17h17v1h-17zM18 17h17v1h-17zM0 18h35v1h-35zM0 19h35v1h-35zM0 20h35v1h-35zM0 21h35v1h-35zM0 22h35v1h-35zM0 23h35v1h-35zM0 24h35v1h-35zM0 25h35v1h-35zM0 26h35v1h-35zM0 27h35v1h-35zM0 28h35v1h-35zM0 29h35v1h-35zM0 30h35v1h-35zM0 31h35v1h-35zM0 32h35v1h-35zM0 33h35v1h-35zM0 34h35v1h-35z"/><path transform="translate(334,1438) scale(8)" fill="#ddd0a1" d="M17 17h1v1h-1z"/><path class="fine" d="M342 1438v280M350 1438v280M358 1438v280M366 1438v280M374 1438v280M382 1438v280M390 1438v280M398 1438v280M406 1438v280M414 1438v280M422 1438v280M430 1438v280M438 1438v280M446 1438v280M454 1438v280M462 1438v280M470 1438v280M478 1438v280M486 1438v280M494 1438v280M502 1438v280M510 1438v280M518 1438v280M526 1438v280M534 1438v280M542 1438v280M550 1438v280M558 1438v280M566 1438v280M574 1438v280M582 1438v280M590 1438v280M598 1438v280M606 1438v280M334 1446h280M334 1454h280M334 1462h280M334 1470h280M334 1478h280M334 1486h280M334 1494h280M334 1502h280M334 1510h280M334 1518h280M334 1526h280M334 1534h280M334 1542h280M334 1550h280M334 1558h280M334 1566h280M334 1574h280M334 1582h280M334 1590h280M334 1598h280M334 1606h280M334 1614h280M334 1622h280M334 1630h280M334 1638h280M334 1646h280M334 1654h280M334 1662h280M334 1670h280M334 1678h280M334 1686h280M334 1694h280M334 1702h280M334 1710h280"/><line x1="334" y1="1438" x2="334" y2="1718" class="grid"/><line x1="390" y1="1438" x2="390" y2="1718" class="grid"/><line x1="446" y1="1438" x2="446" y2="1718" class="grid"/><line x1="502" y1="1438" x2="502" y2="1718" class="grid"/><line x1="558" y1="1438" x2="558" y2="1718" class="grid"/><line x1="614" y1="1438" x2="614" y2="1718" class="grid"/><line x1="334" y1="1438" x2="614" y2="1438" class="grid"/><line x1="334" y1="1494" x2="614" y2="1494" class="grid"/><line x1="334" y1="1550" x2="614" y2="1550" class="grid"/><line x1="334" y1="1606" x2="614" y2="1606" class="grid"/><line x1="334" y1="1662" x2="614" y2="1662" class="grid"/><line x1="334" y1="1718" x2="614" y2="1718" class="grid"/><text x="656" y="1420" class="cap">단면 z = 17</text><rect x="656" y="1438" width="280" height="144" fill="#fbfbfb" stroke="#bbb"/><path transform="translate(656,1438) scale(8)" fill="#ffffff" d="M0 0h17v1h-17zM18 0h17v1h-17zM0 1h16v1h-16zM19 1h16v1h-16zM0 2h15v1h-15zM20 2h15v1h-15zM0 3h14v1h-14zM21 3h14v1h-14zM0 4h13v1h-13zM22 4h13v1h-13zM0 5h12v1h-12zM23 5h12v1h-12zM0 6h11v1h-11zM24 6h11v1h-11zM0 7h10v1h-10zM25 7h10v1h-10zM0 8h9v1h-9zM26 8h9v1h-9zM0 9h8v1h-8zM27 9h8v1h-8zM0 10h7v1h-7zM28 10h7v1h-7zM0 11h6v1h-6zM29 11h6v1h-6zM0 12h5v1h-5zM30 12h5v1h-5zM0 13h4v1h-4zM31 13h4v1h-4zM0 14h3v1h-3zM32 14h3v1h-3zM0 15h2v1h-2zM33 15h2v1h-2zM0 16h1v1h-1zM34 16h1v1h-1z"/><path transform="translate(656,1438) scale(8)" fill="#ddd0a1" d="M17 0h1v1h-1zM16 1h3v1h-3zM15 2h5v1h-5zM14 3h7v1h-7zM12 5h11v1h-11zM11 6h13v1h-13zM10 7h15v1h-15zM9 8h17v1h-17zM8 9h19v1h-19zM7 10h21v1h-21zM5 12h25v1h-25zM4 13h27v1h-27zM3 14h29v1h-29zM2 15h31v1h-31zM1 16h33v1h-33zM0 17h35v1h-35z"/><path transform="translate(656,1438) scale(8)" fill="#d0c28c" d="M13 4h9v1h-9zM6 11h23v1h-23z"/><path class="fine" d="M664 1438v144M672 1438v144M680 1438v144M688 1438v144M696 1438v144M704 1438v144M712 1438v144M720 1438v144M728 1438v144M736 1438v144M744 1438v144M752 1438v144M760 1438v144M768 1438v144M776 1438v144M784 1438v144M792 1438v144M800 1438v144M808 1438v144M816 1438v144M824 1438v144M832 1438v144M840 1438v144M848 1438v144M856 1438v144M864 1438v144M872 1438v144M880 1438v144M888 1438v144M896 1438v144M904 1438v144M912 1438v144M920 1438v144M928 1438v144M656 1446h280M656 1454h280M656 1462h280M656 1470h280M656 1478h280M656 1486h280M656 1494h280M656 1502h280M656 1510h280M656 1518h280M656 1526h280M656 1534h280M656 1542h280M656 1550h280M656 1558h280M656 1566h280M656 1574h280"/><line x1="656" y1="1438" x2="656" y2="1582" class="grid"/><line x1="712" y1="1438" x2="712" y2="1582" class="grid"/><line x1="768" y1="1438" x2="768" y2="1582" class="grid"/><line x1="824" y1="1438" x2="824" y2="1582" class="grid"/><line x1="880" y1="1438" x2="880" y2="1582" class="grid"/><line x1="936" y1="1438" x2="936" y2="1582" class="grid"/><line x1="656" y1="1438" x2="936" y2="1438" class="grid"/><line x1="656" y1="1494" x2="936" y2="1494" class="grid"/><line x1="656" y1="1550" x2="936" y2="1550" class="grid"/><text x="978" y="1420" class="cap">단면 x = 17</text><rect x="978" y="1438" width="280" height="144" fill="#fbfbfb" stroke="#bbb"/><path transform="translate(978,1438) scale(8)" fill="#ffffff" d="M0 0h17v1h-17zM18 0h17v1h-17zM0 1h16v1h-16zM19 1h16v1h-16zM0 2h15v1h-15zM20 2h15v1h-15zM0 3h14v1h-14zM21 3h14v1h-14zM0 4h13v1h-13zM22 4h13v1h-13zM0 5h12v1h-12zM23 5h12v1h-12zM0 6h11v1h-11zM24 6h11v1h-11zM0 7h10v1h-10zM25 7h10v1h-10zM0 8h9v1h-9zM26 8h9v1h-9zM0 9h8v1h-8zM27 9h8v1h-8zM0 10h7v1h-7zM28 10h7v1h-7zM0 11h6v1h-6zM29 11h6v1h-6zM0 12h5v1h-5zM30 12h5v1h-5zM0 13h4v1h-4zM31 13h4v1h-4zM0 14h3v1h-3zM32 14h3v1h-3zM0 15h2v1h-2zM33 15h2v1h-2zM0 16h1v1h-1zM34 16h1v1h-1z"/><path transform="translate(978,1438) scale(8)" fill="#ddd0a1" d="M17 0h1v1h-1zM16 1h3v1h-3zM15 2h5v1h-5zM14 3h7v1h-7zM12 5h11v1h-11zM11 6h13v1h-13zM10 7h15v1h-15zM9 8h17v1h-17zM8 9h19v1h-19zM7 10h21v1h-21zM5 12h25v1h-25zM4 13h27v1h-27zM3 14h29v1h-29zM2 15h31v1h-31zM1 16h33v1h-33zM0 17h35v1h-35z"/><path transform="translate(978,1438) scale(8)" fill="#d0c28c" d="M13 4h9v1h-9zM6 11h23v1h-23z"/><path class="fine" d="M986 1438v144M994 1438v144M1002 1438v144M1010 1438v144M1018 1438v144M1026 1438v144M1034 1438v144M1042 1438v144M1050 1438v144M1058 1438v144M1066 1438v144M1074 1438v144M1082 1438v144M1090 1438v144M1098 1438v144M1106 1438v144M1114 1438v144M1122 1438v144M1130 1438v144M1138 1438v144M1146 1438v144M1154 1438v144M1162 1438v144M1170 1438v144M1178 1438v144M1186 1438v144M1194 1438v144M1202 1438v144M1210 1438v144M1218 1438v144M1226 1438v144M1234 1438v144M1242 1438v144M1250 1438v144M978 1446h280M978 1454h280M978 1462h280M978 1470h280M978 1478h280M978 1486h280M978 1494h280M978 1502h280M978 1510h280M978 1518h280M978 1526h280M978 1534h280M978 1542h280M978 1550h280M978 1558h280M978 1566h280M978 1574h280"/><line x1="978" y1="1438" x2="978" y2="1582" class="grid"/><line x1="1034" y1="1438" x2="1034" y2="1582" class="grid"/><line x1="1090" y1="1438" x2="1090" y2="1582" class="grid"/><line x1="1146" y1="1438" x2="1146" y2="1582" class="grid"/><line x1="1202" y1="1438" x2="1202" y2="1582" class="grid"/><line x1="1258" y1="1438" x2="1258" y2="1582" class="grid"/><line x1="978" y1="1438" x2="1258" y2="1438" class="grid"/><line x1="978" y1="1494" x2="1258" y2="1494" class="grid"/><line x1="978" y1="1550" x2="1258" y2="1550" class="grid"/><text x="12" y="1774" class="cap">범례</text><rect x="12" y="1790" width="12" height="12" fill="#ddd0a1" stroke="#999"/><text x="30" y="1801" class="leg">=  사암  sandstone</text><rect x="302" y="1790" width="12" height="12" fill="#d0c28c" stroke="#999"/><text x="320" y="1801" class="leg">-  깎은 사암  cut_sandstone</text><rect x="592" y="1790" width="12" height="12" fill="#ff2fa0" stroke="#999"/><text x="610" y="1801" class="leg">J  직소  jigsaw</text><rect x="882" y="1790" width="12" height="12" fill="#ffffff" stroke="#999"/><text x="900" y="1801" class="leg">   구조물 공백  structure_void</text></svg>