<svg xmlns="http://www.w3.org/2000/svg" width="1286" height="580" viewBox="0 0 1286 580" shape-rendering="crispEdges" font-family="Consolas,'Malgun Gothic','Noto Sans KR',monospace"><style>text{fill:#222;shape-rendering:auto}.cap{font-size:13px;font-weight:bold}.leg{font-size:12px}.sub{font-size:12px;fill:#666}.tick{font-size:8px;fill:#999;text-anchor:middle}.arrow{font-size:10px;fill:#fff;text-anchor:middle}.fine{stroke:#000;stroke-opacity:.07;stroke-width:1;fill:none}.grid{stroke:#000;stroke-opacity:.30;stroke-width:1}</style><rect width="100%" height="100%" fill="#fff"/><text x="12" y="22" class="cap" font-size="16">cabin / shaft   7×21×7</text><text x="12" y="40" class="sub">북쪽이 위, 오른쪽이 동쪽. 옅은 선은 7칸 격자. 분홍 점은 직소이고 화살표는 그 직소가 보는 방향이다.</text><text x="30" y="60" class="cap">y = 0</text><rect x="30" y="78" width="84" height="84" fill="#fbfbfb" stroke="#bbb"/><path transform="translate(30,78) scale(12)" fill="#7a7a7a" d="M0 0h7v1h-7zM0 1h7v1h-7zM0 2h7v1h-7zM0 3h3v1h-3zM5 3h2v1h-2zM0 4h7v1h-7zM0 5h7v1h-7zM0 6h7v1h-7z"/><path transform="translate(30,78) scale(12)" fill="#b8863f" d="M3 3h1v1h-1z"/><path transform="translate(30,78) scale(12)" fill="#ff2fa0" d="M4 3h1v1h-1z"/><path class="fine" d="M42 78v84M54 78v84M66 78v84M78 78v84M90 78v84M102 78v84M30 90h84M30 102h84M30 114h84M30 126h84M30 138h84M30 150h84"/><line x1="30" y1="78" x2="30" y2="162" class="grid"/><line x1="114" y1="78" x2="114" y2="162" class="grid"/><line x1="30" y1="78" x2="114" y2="78" class="grid"/><line x1="30" y1="162" x2="114" y2="162" class="grid"/><text x="36.0" y="75" class="tick">0</text><text x="48.0" y="75" class="tick">1</text><text x="60.0" y="75" class="tick">2</text><text x="72.0" y="75" class="tick">3</text><text x="84.0" y="75" class="tick">4</text><text x="96.0" y="75" class="tick">5</text><text x="108.0" y="75" class="tick">6</text><text x="26" y="86.6" class="tick" text-anchor="end">0</text><text x="26" y="98.6" class="tick" text-anchor="end">1</text><text x="26" y="110.6" class="tick" text-anchor="end">2</text><text x="26" y="122.6" class="tick" text-anchor="end">3</text><text x="26" y="134.6" class="tick" text-anchor="end">4</text><text x="26" y="146.6" class="tick" text-anchor="end">5</text><text x="26" y="158.6" class="tick" text-anchor="end">6</text><circle cx="84.0" cy="120.0" r="6.0" fill="#ff2fa0" stroke="#fff"/><text x="84.0" y="123.8" class="arrow" font-size="10.8">◇</text><text x="174" y="60" class="cap">y = 1–2</text><rect x="174" y="78" width="84" height="84" fill="#fbfbfb" stroke="#bbb"/><path transform="translate(174,78) scale(12)" fill="#7a7a7a" d="M0 0h7v1h-7zM0 1h7v1h-7zM0 2h7v1h-7zM0 3h3v1h-3zM4 3h3v1h-3zM0 4h7v1h-7zM0 5h7v1h-7zM0 6h7v1h-7z"/><path transform="translate(174,78) scale(12)" fill="#b8863f" d="M3 3h1v1h-1z"/><path class="fine" d="M186 78v84M198 78v84M210 78v84M222 78v84M234 78v84M246 78v84M174 90h84M174 102h84M174 114h84M174 126h84M174 138h84M174 150h84"/><line x1="174" y1="78" x2="174" y2="162" class="grid"/><line x1="258" y1="78" x2="258" y2="162" class="grid"/><line x1="174" y1="78" x2="258" y2="78" class="grid"/><line x1="174" y1="162" x2="258" y2="162" class="grid"/><text x="180.0" y="75" class="tick">0</text><text x="192.0" y="75" class="tick">1</text><text x="204.0" y="75" class="tick">2</text><text x="216.0" y="75" class="tick">3</text><text x="228.0" y="75" class="tick">4</text><text x="240.0" y="75" class="tick">5</text><text x="252.0" y="75" class="tick">6</text><text x="170" y="86.6" class="tick" text-anchor="end">0</text><text x="170" y="98.6" class="tick" text-anchor="end">1</text><text x="170" y="110.6" class="tick" text-anchor="end">2</text><text x="170" y="122.6" class="tick" text-anchor="end">3</text><text x="170" y="134.6" class="tick" text-anchor="end">4</text><text x="170" y="146.6" class="tick" text-anchor="end">5</text><text x="170" y="158.6" class="tick" text-anchor="end">6</text><text x="318" y="60" class="cap">y = 3</text><rect x="318" y="78" width="84" height="84" fill="#fbfbfb" stroke="#bbb"/><path transform="translate(318,78) scale(12)" fill="#9a6a55" d="M0 0h7v1h-7zM0 1h7v1h-7zM0 2h2v1h-2zM5 2h2v1h-2zM0 3h2v1h-2zM5 3h2v1h-2zM0 4h2v1h-2zM5 4h2v1h-2zM0 5h7v1h-7zM0 6h7v1h-7z"/><path transform="translate(318,78) scale(12)" fill="#7a7a7a" d="M2 2h3v1h-3zM2 3h1v1h-1zM4 3h1v1h-1zM2 4h3v1h-3z"/><path transform="translate(318,78) scale(12)" fill="#b8863f" d="M3 3h1v1h-1z"/><path class="fine" d="M330 78v84M342 78v84M354 78v84M366 78v84M378 78v84M390 78v84M318 90h84M318 102h84M318 114h84M318 126h84M318 138h84M318 150h84"/><line x1="318" y1="78" x2="318" y2="162" class="grid"/><line x1="402" y1="78" x2="402" y2="162" class="grid"/><line x1="318" y1="78" x2="402" y2="78" class="grid"/><line x1="318" y1="162" x2="402" y2="162" class="grid"/><text x="324.0" y="75" class="tick">0</text><text x="336.0" y="75" class="tick">1</text><text x="348.0" y="75" class="tick">2</text><text x="360.0" y="75" class="tick">3</text><text x="372.0" y="75" class="tick">4</text><text x="384.0" y="75" class="tick">5</text><text x="396.0" y="75" class="tick">6</text><text x="314" y="86.6" class="tick" text-anchor="end">0</text><text x="314" y="98.6" class="tick" text-anchor="end">1</text><text x="314" y="110.6" class="tick" text-anchor="end">2</text><text x="314" y="122.6" class="tick" text-anchor="end">3</text><text x="314" y="134.6" class="tick" text-anchor="end">4</text><text x="314" y="146.6" class="tick" text-anchor="end">5</text><text x="314" y="158.6" class="tick" text-anchor="end">6</text><text x="462" y="60" class="cap">y = 4–6</text><rect x="462" y="78" width="84" height="84" fill="#fbfbfb" stroke="#bbb"/><path transform="translate(462,78) scale(12)" fill="#7a7a7a" d="M0 0h7v1h-7zM0 1h7v1h-7zM0 2h7v1h-7zM0 3h3v1h-3zM4 3h3v1h-3zM0 4h7v1h-7zM0 5h7v1h-7zM0 6h7v1h-7z"/><path transform="translate(462,78) scale(12)" fill="#b8863f" d="M3 3h1v1h-1z"/><path class="fine" d="M474 78v84M486 78v84M498 78v84M510 78v84M522 78v84M534 78v84M462 90h84M462 102h84M462 114h84M462 126h84M462 138h84M462 150h84"/><line x1="462" y1="78" x2="462" y2="162" class="grid"/><line x1="546" y1="78" x2="546" y2="162" class="grid"/><line x1="462" y1="78" x2="546" y2="78" class="grid"/><line x1="462" y1="162" x2="546" y2="162" class="grid"/><text x="468.0" y="75" class="tick">0</text><text x="480.0" y="75" class="tick">1</text><text x="492.0" y="75" class="tick">2</text><text x="504.0" y="75" class="tick">3</text><text x="516.0" y="75" class="tick">4</text><text x="528.0" y="75" class="tick">5</text><text x="540.0" y="75" class="tick">6</text><text x="458" y="86.6" class="tick" text-anchor="end">0</text><text x="458" y="98.6" class="tick" text-anchor="end">1</text><text x="458" y="110.6" class="tick" text-anchor="end">2</text><text x="458" y="122.6" class="tick" text-anchor="end">3</text><text x="458" y="134.6" class="tick" text-anchor="end">4</text><text x="458" y="146.6" class="tick" text-anchor="end">5</text><text x="458" y="158.6" class="tick" text-anchor="end">6</text><text x="606" y="60" class="cap">y = 7</text><rect x="606" y="78" width="84" height="84" fill="#fbfbfb" stroke="#bbb"/><path transform="translate(606,78) scale(12)" fill="#9a6a55" d="M0 0h7v1h-7zM0 1h7v1h-7zM0 2h2v1h-2zM5 2h2v1h-2zM0 3h2v1h-2zM5 3h2v1h-2zM0 4h2v1h-2zM5 4h2v1h-2zM0 5h7v1h-7zM0 6h7v1h-7z"/><path transform="translate(606,78) scale(12)" fill="#7a7a7a" d="M2 2h3v1h-3zM2 3h1v1h-1zM4 3h1v1h-1zM2 4h3v1h-3z"/><path transform="translate(606,78) scale(12)" fill="#b8863f" d="M3 3h1v1h-1z"/><path class="fine" d="M618 78v84M630 78v84M642 78v84M654 78v84M666 78v84M678 78v84M606 90h84M606 102h84M606 114h84M606 126h84M606 138h84M606 150h84"/><line x1="606" y1="78" x2="606" y2="162" class="grid"/><line x1="690" y1="78" x2="690" y2="162" class="grid"/><line x1="606" y1="78" x2="690" y2="78" class="grid"/><line x1="606" y1="162" x2="690" y2="162" class="grid"/><text x="612.0" y="75" class="tick">0</text><text x="624.0" y="75" class="tick">1</text><text x="636.0" y="75" class="tick">2</text><text x="648.0" y="75" class="tick">3</text><text x="660.0" y="75" class="tick">4</text><text x="672.0" y="75" class="tick">5</text><text x="684.0" y="75" class="tick">6</text><text x="602" y="86.6" class="tick" text-anchor="end">0</text><text x="602" y="98.6" class="tick" text-anchor="end">1</text><text x="602" y="110.6" class="tick" text-anchor="end">2</text><text x="602" y="122.6" class="tick" text-anchor="end">3</text><text x="602" y="134.6" class="tick" text-anchor="end">4</text><text x="602" y="146.6" class="tick" text-anchor="end">5</text><text x="602" y="158.6" class="tick" text-anchor="end">6</text><text x="750" y="60" class="cap">y = 8–10</text><rect x="750" y="78" width="84" height="84" fill="#fbfbfb" stroke="#bbb"/><path transform="translate(750,78) scale(12)" fill="#7a7a7a" d="M0 0h7v1h-7zM0 1h7v1h-7zM0 2h7v1h-7zM0 3h3v1h-3zM4 3h3v1h-3zM0 4h7v1h-7zM0 5h7v1h-7zM0 6h7v1h-7z"/><path transform="translate(750,78) scale(12)" fill="#b8863f" d="M3 3h1v1h-1z"/><path class="fine" d="M762 78v84M774 78v84M786 78v84M798 78v84M810 78v84M822 78v84M750 90h84M750 102h84M750 114h84M750 126h84M750 138h84M750 150h84"/><line x1="750" y1="78" x2="750" y2="162" class="grid"/><line x1="834" y1="78" x2="834" y2="162" class="grid"/><line x1="750" y1="78" x2="834" y2="78" class="grid"/><line x1="750" y1="162" x2="834" y2="162" class="grid"/><text x="756.0" y="75" class="tick">0</text><text x="768.0" y="75" class="tick">1</text><text x="780.0" y="75" class="tick">2</text><text x="792.0" y="75" class="tick">3</text><text x="804.0" y="75" class="tick">4</text><text x="816.0" y="75" class="tick">5</text><text x="828.0" y="75" class="tick">6</text><text x="746" y="86.6" class="tick" text-anchor="end">0</text><text x="746" y="98.6" class="tick" text-anchor="end">1</text><text x="746" y="110.6" class="tick" text-anchor="end">2</text><text x="746" y="122.6" class="tick" text-anchor="end">3</text><text x="746" y="134.6" class="tick" text-anchor="end">4</text><text x="746" y="146.6" class="tick" text-anchor="end">5</text><text x="746" y="158.6" class="tick" text-anchor="end">6</text><text x="894" y="60" class="cap">y = 11</text><rect x="894" y="78" width="84" height="84" fill="#fbfbfb" stroke="#bbb"/><path transform="translate(894,78) scale(12)" fill="#9a6a55" d="M0 0h7v1h-7zM0 1h7v1h-7zM0 2h2v1h-2zM5 2h2v1h-2zM0 3h2v1h-2zM5 3h2v1h-2zM0 4h2v1h-2zM5 4h2v1h-2zM0 5h7v1h-7zM0 6h7v1h-7z"/><path transform="translate(894,78) scale(12)" fill="#7a7a7a" d="M2 2h3v1h-3zM2 3h1v1h-1zM4 3h1v1h-1zM2 4h3v1h-3z"/><path transform="translate(894,78) scale(12)" fill="#b8863f" d="M3 3h1v1h-1z"/><path class="fine" d="M906 78v84M918 78v84M930 78v84M942 78v84M954 78v84M966 78v84M894 90h84M894 102h84M894 114h84M894 126h84M894 138h84M894 150h84"/><line x1="894" y1="78" x2="894" y2="162" class="grid"/><line x1="978" y1="78" x2="978" y2="162" class="grid"/><line x1="894" y1="78" x2="978" y2="78" class="grid"/><line x1="894" y1="162" x2="978" y2="162" class="grid"/><text x="900.0" y="75" class="tick">0</text><text x="912.0" y="75" class="tick">1</text><text x="924.0" y="75" class="tick">2</text><text x="936.0" y="75" class="tick">3</text><text x="948.0" y="75" class="tick">4</text><text x="960.0" y="75" class="tick">5</text><text x="972.0" y="75" class="tick">6</text><text x="890" y="86.6" class="tick" text-anchor="end">0</text><text x="890" y="98.6" class="tick" text-anchor="end">1</text><text x="890" y="110.6" class="tick" text-anchor="end">2</text><text x="890" y="122.6" class="tick" text-anchor="end">3</text><text x="890" y="134.6" class="tick" text-anchor="end">4</text><text x="890" y="146.6" class="tick" text-anchor="end">5</text><text x="890" y="158.6" class="tick" text-anchor="end">6</text><text x="1038" y="60" class="cap">y = 12–14</text><rect x="1038" y="78" width="84" height="84" fill="#fbfbfb" stroke="#bbb"/><path transform="translate(1038,78) scale(12)" fill="#7a7a7a" d="M0 0h7v1h-7zM0 1h7v1h-7zM0 2h7v1h-7zM0 3h3v1h-3zM4 3h3v1h-3zM0 4h7v1h-7zM0 5h7v1h-7zM0 6h7v1h-7z"/><path transform="translate(1038,78) scale(12)" fill="#b8863f" d="M3 3h1v1h-1z"/><path class="fine" d="M1050 78v84M1062 78v84M1074 78v84M1086 78v84M1098 78v84M1110 78v84M1038 90h84M1038 102h84M1038 114h84M1038 126h84M1038 138h84M1038 150h84"/><line x1="1038" y1="78" x2="1038" y2="162" class="grid"/><line x1="1122" y1="78" x2="1122" y2="162" class="grid"/><line x1="1038" y1="78" x2="1122" y2="78" class="grid"/><line x1="1038" y1="162" x2="1122" y2="162" class="grid"/><text x="1044.0" y="75" class="tick">0</text><text x="1056.0" y="75" class="tick">1</text><text x="1068.0" y="75" class="tick">2</text><text x="1080.0" y="75" class="tick">3</text><text x="1092.0" y="75" class="tick">4</text><text x="1104.0" y="75" class="tick">5</text><text x="1116.0" y="75" class="tick">6</text><text x="1034" y="86.6" class="tick" text-anchor="end">0</text><text x="1034" y="98.6" class="tick" text-anchor="end">1</text><text x="1034" y="110.6" class="tick" text-anchor="end">2</text><text x="1034" y="122.6" class="tick" text-anchor="end">3</text><text x="1034" y="134.6" class="tick" text-anchor="end">4</text><text x="1034" y="146.6" class="tick" text-anchor="end">5</text><text x="1034" y="158.6" class="tick" text-anchor="end">6</text><text x="1182" y="60" class="cap">y = 15</text><rect x="1182" y="78" width="84" height="84" fill="#fbfbfb" stroke="#bbb"/><path transform="translate(1182,78) scale(12)" fill="#9a6a55" d="M0 0h7v1h-7zM0 1h7v1h-7zM0 2h2v1h-2zM5 2h2v1h-2zM0 3h2v1h-2zM5 3h2v1h-2zM0 4h2v1h-2zM5 4h2v1h-2zM0 5h7v1h-7zM0 6h7v1h-7z"/><path transform="translate(1182,78) scale(12)" fill="#7a7a7a" d="M2 2h3v1h-3zM2 3h1v1h-1zM4 3h1v1h-1zM2 4h3v1h-3z"/><path transform="translate(1182,78) scale(12)" fill="#b8863f" d="M3 3h1v1h-1z"/><path class="fine" d="M1194 78v84M1206 78v84M1218 78v84M1230 78v84M1242 78v84M1254 78v84M1182 90h84M1182 102h84M1182 114h84M1182 126h84M1182 138h84M1182 150h84"/><line x1="1182" y1="78" x2="1182" y2="162" class="grid"/><line x1="1266" y1="78" x2="1266" y2="162" class="grid"/><line x1="1182" y1="78" x2="1266" y2="78" class="grid"/><line x1="1182" y1="162" x2="1266" y2="162" class="grid"/><text x="1188.0" y="75" class="tick">0</text><text x="1200.0" y="75" class="tick">1</text><text x="1212.0" y="75" class="tick">2</text><text x="1224.0" y="75" class="tick">3</text><text x="1236.0" y="75" class="tick">4</text><text x="1248.0" y="75" class="tick">5</text><text x="1260.0" y="75" class="tick">6</text><text x="1178" y="86.6" class="tick" text-anchor="end">0</text><text x="1178" y="98.6" class="tick" text-anchor="end">1</text><text x="1178" y="110.6" class="tick" text-anchor="end">2</text><text x="1178" y="122.6" class="tick" text-anchor="end">3</text><text x="1178" y="134.6" class="tick" text-anchor="end">4</text><text x="1178" y="146.6" class="tick" text-anchor="end">5</text><text x="1178" y="158.6" class="tick" text-anchor="end">6</text><text x="30" y="204" class="cap">y = 16–18</text><rect x="30" y="222" width="84" height="84" fill="#fbfbfb" stroke="#bbb"/><path transform="translate(30,222) scale(12)" fill="#7a7a7a" d="M0 0h7v1h-7zM0 1h7v1h-7zM0 2h7v1h-7zM0 3h3v1h-3zM4 3h3v1h-3zM0 4h7v1h-7zM0 5h7v1h-7zM0 6h7v1h-7z"/><path transform="translate(30,222) scale(12)" fill="#b8863f" d="M3 3h1v1h-1z"/><path class="fine" d="M42 222v84M54 222v84M66 222v84M78 222v84M90 222v84M102 222v84M30 234h84M30 246h84M30 258h84M30 270h84M30 282h84M30 294h84"/><line x1="30" y1="222" x2="30" y2="306" class="grid"/><line x1="114" y1="222" x2="114" y2="306" class="grid"/><line x1="30" y1="222" x2="114" y2="222" class="grid"/><line x1="30" y1="306" x2="114" y2="306" class="grid"/><text x="36.0" y="219" class="tick">0</text><text x="48.0" y="219" class="tick">1</text><text x="60.0" y="219" class="tick">2</text><text x="72.0" y="219" class="tick">3</text><text x="84.0" y="219" class="tick">4</text><text x="96.0" y="219" class="tick">5</text><text x="108.0" y="219" class="tick">6</text><text x="26" y="230.6" class="tick" text-anchor="end">0</text><text x="26" y="242.6" class="tick" text-anchor="end">1</text><text x="26" y="254.6" class="tick" text-anchor="end">2</text><text x="26" y="266.6" class="tick" text-anchor="end">3</text><text x="26" y="278.6" class="tick" text-anchor="end">4</text><text x="26" y="290.6" class="tick" text-anchor="end">5</text><text x="26" y="302.6" class="tick" text-anchor="end">6</text><text x="174" y="204" class="cap">y = 19</text><rect x="174" y="222" width="84" height="84" fill="#fbfbfb" stroke="#bbb"/><path transform="translate(174,222) scale(12)" fill="#9a6a55" d="M0 0h7v1h-7zM0 1h7v1h-7zM0 2h2v1h-2zM5 2h2v1h-2zM0 3h2v1h-2zM5 3h2v1h-2zM0 4h2v1h-2zM5 4h2v1h-2zM0 5h7v1h-7zM0 6h7v1h-7z"/><path transform="translate(174,222) scale(12)" fill="#7a7a7a" d="M2 2h3v1h-3zM2 3h1v1h-1zM4 3h1v1h-1zM2 4h3v1h-3z"/><path transform="translate(174,222) scale(12)" fill="#b8863f" d="M3 3h1v1h-1z"/><path class="fine" d="M186 222v84M198 222v84M210 222v84M222 222v84M234 222v84M246 222v84M174 234h84M174 246h84M174 258h84M174 270h84M174 282h84M174 294h84"/><line x1="174" y1="222" x2="174" y2="306" class="grid"/><line x1="258" y1="222" x2="258" y2="306" class="grid"/><line x1="174" y1="222" x2="258" y2="222" class="grid"/><line x1="174" y1="306" x2="258" y2="306" class="grid"/><text x="180.0" y="219" class="tick">0</text><text x="192.0" y="219" class="tick">1</text><text x="204.0" y="219" class="tick">2</text><text x="216.0" y="219" class="tick">3</text><text x="228.0" y="219" class="tick">4</text><text x="240.0" y="219" class="tick">5</text><text x="252.0" y="219" class="tick">6</text><text x="170" y="230.6" class="tick" text-anchor="end">0</text><text x="170" y="242.6" class="tick" text-anchor="end">1</text><text x="170" y="254.6" class="tick" text-anchor="end">2</text><text x="170" y="266.6" class="tick" text-anchor="end">3</text><text x="170" y="278.6" class="tick" text-anchor="end">4</text><text x="170" y="290.6" class="tick" text-anchor="end">5</text><text x="170" y="302.6" class="tick" text-anchor="end">6</text><text x="318" y="204" class="cap">y = 20</text><rect x="318" y="222" width="84" height="84" fill="#fbfbfb" stroke="#bbb"/><path transform="translate(318,222) scale(12)" fill="#7a7a7a" d="M0 0h7v1h-7zM0 1h7v1h-7zM0 2h7v1h-7zM0 3h3v1h-3zM5 3h2v1h-2zM0 4h7v1h-7zM0 5h7v1h-7zM0 6h7v1h-7z"/><path transform="translate(318,222) scale(12)" fill="#b8863f" d="M3 3h1v1h-1z"/><path transform="translate(318,222) scale(12)" fill="#ff2fa0" d="M4 3h1v1h-1z"/><path class="fine" d="M330 222v84M342 222v84M354 222v84M366 222v84M378 222v84M390 222v84M318 234h84M318 246h84M318 258h84M318 270h84M318 282h84M318 294h84"/><line x1="318" y1="222" x2="318" y2="306" class="grid"/><line x1="402" y1="222" x2="402" y2="306" class="grid"/><line x1="318" y1="222" x2="402" y2="222" class="grid"/><line x1="318" y1="306" x2="402" y2="306" class="grid"/><text x="324.0" y="219" class="tick">0</text><text x="336.0" y="219" class="tick">1</text><text x="348.0" y="219" class="tick">2</text><text x="360.0" y="219" class="tick">3</text><text x="372.0" y="219" class="tick">4</text><text x="384.0" y="219" class="tick">5</text><text x="396.0" y="219" class="tick">6</text><text x="314" y="230.6" class="tick" text-anchor="end">0</text><text x="314" y="242.6" class="tick" text-anchor="end">1</text><text x="314" y="254.6" class="tick" text-anchor="end">2</text><text x="314" y="266.6" class="tick" text-anchor="end">3</text><text x="314" y="278.6" class="tick" text-anchor="end">4</text><text x="314" y="290.6" class="tick" text-anchor="end">5</text><text x="314" y="302.6" class="tick" text-anchor="end">6</text><circle cx="372.0" cy="264.0" r="6.0" fill="#ff2fa0" stroke="#fff"/><text x="372.0" y="267.8" class="arrow" font-size="10.8">◆</text><text x="462" y="204" class="cap">단면 z = 3</text><rect x="462" y="222" width="84" height="252" fill="#fbfbfb" stroke="#bbb"/><path transform="translate(462,222) scale(12)" fill="#7a7a7a" d="M0 0h3v1h-3zM5 0h2v1h-2zM2 1h1v1h-1zM4 1h1v1h-1zM0 2h3v1h-3zM4 2h3v1h-3zM0 3h3v1h-3zM4 3h3v1h-3zM0 4h3v1h-3zM4 4h3v1h-3zM2 5h1v1h-1zM4 5h1v1h-1zM0 6h3v1h-3zM4 6h3v1h-3zM0 7h3v1h-3zM4 7h3v1h-3zM0 8h3v1h-3zM4 8h3v1h-3zM2 9h1v1h-1zM4 9h1v1h-1zM0 10h3v1h-3zM4 10h3v1h-3zM0 11h3v1h-3zM4 11h3v1h-3zM0 12h3v1h-3zM4 12h3v1h-3zM2 13h1v1h-1zM4 13h1v1h-1zM0 14h3v1h-3zM4 14h3v1h-3zM0 15h3v1h-3zM4 15h3v1h-3zM0 16h3v1h-3zM4 16h3v1h-3zM2 17h1v1h-1zM4 17h1v1h-1zM0 18h3v1h-3zM4 18h3v1h-3zM0 19h3v1h-3zM4 19h3v1h-3zM0 20h3v1h-3zM5 20h2v1h-2z"/><path transform="translate(462,222) scale(12)" fill="#b8863f" d="M3 0h1v1h-1zM3 1h1v1h-1zM3 2h1v1h-1zM3 3h1v1h-1zM3 4h1v1h-1zM3 5h1v1h-1zM3 6h1v1h-1zM3 7h1v1h-1zM3 8h1v1h-1zM3 9h1v1h-1zM3 10h1v1h-1zM3 11h1v1h-1zM3 12h1v1h-1zM3 13h1v1h-1zM3 14h1v1h-1zM3 15h1v1h-1zM3 16h1v1h-1zM3 17h1v1h-1zM3 18h1v1h-1zM3 19h1v1h-1zM3 20h1v1h-1z"/><path transform="translate(462,222) scale(12)" fill="#ff2fa0" d="M4 0h1v1h-1zM4 20h1v1h-1z"/><path transform="translate(462,222) scale(12)" fill="#9a6a55" d="M0 1h2v1h-2zM5 1h2v1h-2zM0 5h2v1h-2zM5 5h2v1h-2zM0 9h2v1h-2zM5 9h2v1h-2zM0 13h2v1h-2zM5 13h2v1h-2zM0 17h2v1h-2zM5 17h2v1h-2z"/><path class="fine" d="M474 222v252M486 222v252M498 222v252M510 222v252M522 222v252M534 222v252M462 234h84M462 246h84M462 258h84M462 270h84M462 282h84M462 294h84M462 306h84M462 318h84M462 330h84M462 342h84M462 354h84M462 366h84M462 378h84M462 390h84M462 402h84M462 414h84M462 426h84M462 438h84M462 450h84M462 462h84"/><line x1="462" y1="222" x2="462" y2="474" class="grid"/><line x1="546" y1="222" x2="546" y2="474" class="grid"/><line x1="462" y1="222" x2="546" y2="222" class="grid"/><line x1="462" y1="306" x2="546" y2="306" class="grid"/><line x1="462" y1="390" x2="546" y2="390" class="grid"/><line x1="462" y1="474" x2="546" y2="474" class="grid"/><text x="468.0" y="219" class="tick">0</text><text x="480.0" y="219" class="tick">1</text><text x="492.0" y="219" class="tick">2</text><text x="504.0" y="219" class="tick">3</text><text x="516.0" y="219" class="tick">4</text><text x="528.0" y="219" class="tick">5</text><text x="540.0" y="219" class="tick">6</text><text x="458" y="230.6" class="tick" text-anchor="end">0</text><text x="458" y="242.6" class="tick" text-anchor="end">1</text><text x="458" y="254.6" class="tick" text-anchor="end">2</text><text x="458" y="266.6" class="tick" text-anchor="end">3</text><text x="458" y="278.6" class="tick" text-anchor="end">4</text><text x="458" y="290.6" class="tick" text-anchor="end">5</text><text x="458" y="302.6" class="tick" text-anchor="end">6</text><text x="458" y="314.6" class="tick" text-anchor="end">7</text><text x="458" y="326.6" class="tick" text-anchor="end">8</text><text x="458" y="338.6" class="tick" text-anchor="end">9</text><text x="458" y="350.6" class="tick" text-anchor="end">10</text><text x="458" y="362.6" class="tick" text-anchor="end">11</text><text x="458" y="374.6" class="tick" text-anchor="end">12</text><text x="458" y="386.6" class="tick" text-anchor="end">13</text><text x="458" y="398.6" class="tick" text-anchor="end">14</text><text x="458" y="410.6" class="tick" text-anchor="end">15</text><text x="458" y="422.6" class="tick" text-anchor="end">16</text><text x="458" y="434.6" class="tick" text-anchor="end">17</text><text x="458" y="446.6" class="tick" text-anchor="end">18</text><text x="458" y="458.6" class="tick" text-anchor="end">19</text><text x="458" y="470.6" class="tick" text-anchor="end">20</text><circle cx="516.0" cy="468.0" r="6.0" fill="#ff2fa0" stroke="#fff"/><text x="516.0" y="471.8" class="arrow" font-size="10.8">◇</text><circle cx="516.0" cy="228.0" r="6.0" fill="#ff2fa0" stroke="#fff"/><text x="516.0" y="231.8" class="arrow" font-size="10.8">◆</text><text x="606" y="204" class="cap">단면 x = 3</text><rect x="606" y="222" width="84" height="252" fill="#fbfbfb" stroke="#bbb"/><path transform="translate(606,222) scale(12)" fill="#7a7a7a" d="M0 0h3v1h-3zM4 0h3v1h-3zM2 1h1v1h-1zM4 1h1v1h-1zM0 2h3v1h-3zM4 2h3v1h-3zM0 3h3v1h-3zM4 3h3v1h-3zM0 4h3v1h-3zM4 4h3v1h-3zM2 5h1v1h-1zM4 5h1v1h-1zM0 6h3v1h-3zM4 6h3v1h-3zM0 7h3v1h-3zM4 7h3v1h-3zM0 8h3v1h-3zM4 8h3v1h-3zM2 9h1v1h-1zM4 9h1v1h-1zM0 10h3v1h-3zM4 10h3v1h-3zM0 11h3v1h-3zM4 11h3v1h-3zM0 12h3v1h-3zM4 12h3v1h-3zM2 13h1v1h-1zM4 13h1v1h-1zM0 14h3v1h-3zM4 14h3v1h-3zM0 15h3v1h-3zM4 15h3v1h-3zM0 16h3v1h-3zM4 16h3v1h-3zM2 17h1v1h-1zM4 17h1v1h-1zM0 18h3v1h-3zM4 18h3v1h-3zM0 19h3v1h-3zM4 19h3v1h-3zM0 20h3v1h-3zM4 20h3v1h-3z"/><path transform="translate(606,222) scale(12)" fill="#b8863f" d="M3 0h1v1h-1zM3 1h1v1h-1zM3 2h1v1h-1zM3 3h1v1h-1zM3 4h1v1h-1zM3 5h1v1h-1zM3 6h1v1h-1zM3 7h1v1h-1zM3 8h1v1h-1zM3 9h1v1h-1zM3 10h1v1h-1zM3 11h1v1h-1zM3 12h1v1h-1zM3 13h1v1h-1zM3 14h1v1h-1zM3 15h1v1h-1zM3 16h1v1h-1zM3 17h1v1h-1zM3 18h1v1h-1zM3 19h1v1h-1zM3 20h1v1h-1z"/><path transform="translate(606,222) scale(12)" fill="#9a6a55" d="M0 1h2v1h-2zM5 1h2v1h-2zM0 5h2v1h-2zM5 5h2v1h-2zM0 9h2v1h-2zM5 9h2v1h-2zM0 13h2v1h-2zM5 13h2v1h-2zM0 17h2v1h-2zM5 17h2v1h-2z"/><path class="fine" d="M618 222v252M630 222v252M642 222v252M654 222v252M666 222v252M678 222v252M606 234h84M606 246h84M606 258h84M606 270h84M606 282h84M606 294h84M606 306h84M606 318h84M606 330h84M606 342h84M606 354h84M606 366h84M606 378h84M606 390h84M606 402h84M606 414h84M606 426h84M606 438h84M606 450h84M606 462h84"/><line x1="606" y1="222" x2="606" y2="474" class="grid"/><line x1="690" y1="222" x2="690" y2="474" class="grid"/><line x1="606" y1="222" x2="690" y2="222" class="grid"/><line x1="606" y1="306" x2="690" y2="306" class="grid"/><line x1="606" y1="390" x2="690" y2="390" class="grid"/><line x1="606" y1="474" x2="690" y2="474" class="grid"/><text x="612.0" y="219" class="tick">0</text><text x="624.0" y="219" class="tick">1</text><text x="636.0" y="219" class="tick">2</text><text x="648.0" y="219" class="tick">3</text><text x="660.0" y="219" class="tick">4</text><text x="672.0" y="219" class="tick">5</text><text x="684.0" y="219" class="tick">6</text><text x="602" y="230.6" class="tick" text-anchor="end">0</text><text x="602" y="242.6" class="tick" text-anchor="end">1</text><text x="602" y="254.6" class="tick" text-anchor="end">2</text><text x="602" y="266.6" class="tick" text-anchor="end">3</text><text x="602" y="278.6" class="tick" text-anchor="end">4</text><text x="602" y="290.6" class="tick" text-anchor="end">5</text><text x="602" y="302.6" class="tick" text-anchor="end">6</text><text x="602" y="314.6" class="tick" text-anchor="end">7</text><text x="602" y="326.6" class="tick" text-anchor="end">8</text><text x="602" y="338.6" class="tick" text-anchor="end">9</text><text x="602" y="350.6" class="tick" text-anchor="end">10</text><text x="602" y="362.6" class="tick" text-anchor="end">11</text><text x="602" y="374.6" class="tick" text-anchor="end">12</text><text x="602" y="386.6" class="tick" text-anchor="end">13</text><text x="602" y="398.6" class="tick" text-anchor="end">14</text><text x="602" y="410.6" class="tick" text-anchor="end">15</text><text x="602" y="422.6" class="tick" text-anchor="end">16</text><text x="602" y="434.6" class="tick" text-anchor="end">17</text><text x="602" y="446.6" class="tick" text-anchor="end">18</text><text x="602" y="458.6" class="tick" text-anchor="end">19</text><text x="602" y="470.6" class="tick" text-anchor="end">20</text><text x="12" y="530" class="cap">범례</text><rect x="12" y="546" width="12" height="12" fill="#b8863f" stroke="#999"/><text x="30" y="557" class="leg">H  사다리  ladder</text><rect x="302" y="546" width="12" height="12" fill="#9a6a55" stroke="#999"/><text x="320" y="557" class="leg">G  화강암  granite</text><rect x="592" y="546" width="12" height="12" fill="#7a7a7a" stroke="#999"/><text x="610" y="557" class="leg">.  돌  stone</text><rect x="882" y="546" width="12" height="12" fill="#ff2fa0" stroke="#999"/><text x="900" y="557" class="leg">J  직소  jigsaw</text></svg>